<mxfile host="app.diagrams.net" modified="2024-02-20T22:47:43.490Z" agent="Mozilla/5.0 (Windows NT 10.0; Win64; x64) AppleWebKit/537.36 (KHTML, like Gecko) Chrome/121.0.0.0 Safari/537.36" etag="N-brRnS9zaI4j6nIsm4K" version="23.1.5" type="device">
  <diagram name="PÃ¡gina-1" id="5cadIUEOtDOoo7C8KjCc">
    <mxGraphModel dx="2074" dy="1106" grid="1" gridSize="10" guides="1" tooltips="1" connect="1" arrows="1" fold="1" page="1" pageScale="1" pageWidth="827" pageHeight="1169" math="0" shadow="0">
      <root>
        <mxCell id="0" />
        <mxCell id="1" parent="0" />
        <mxCell id="wvYjEetLXpeZo1KLkmKn-3" value="" style="html=1;verticalAlign=bottom;startArrow=circle;startFill=1;endArrow=open;startSize=6;endSize=8;curved=0;rounded=0;entryX=0.5;entryY=0;entryDx=0;entryDy=0;" parent="1" target="wvYjEetLXpeZo1KLkmKn-4" edge="1">
          <mxGeometry width="80" relative="1" as="geometry">
            <mxPoint x="290" y="90" as="sourcePoint" />
            <mxPoint x="290" y="170" as="targetPoint" />
          </mxGeometry>
        </mxCell>
        <mxCell id="wvYjEetLXpeZo1KLkmKn-11" style="edgeStyle=orthogonalEdgeStyle;rounded=0;orthogonalLoop=1;jettySize=auto;html=1;exitX=0.5;exitY=1;exitDx=0;exitDy=0;entryX=0.5;entryY=0;entryDx=0;entryDy=0;" parent="1" source="wvYjEetLXpeZo1KLkmKn-4" target="wvYjEetLXpeZo1KLkmKn-8" edge="1">
          <mxGeometry relative="1" as="geometry" />
        </mxCell>
        <mxCell id="wvYjEetLXpeZo1KLkmKn-4" value="DESPERTAR" style="rounded=1;whiteSpace=wrap;html=1;" parent="1" vertex="1">
          <mxGeometry x="230" y="150" width="120" height="50" as="geometry" />
        </mxCell>
        <mxCell id="wvYjEetLXpeZo1KLkmKn-16" style="edgeStyle=orthogonalEdgeStyle;rounded=0;orthogonalLoop=1;jettySize=auto;html=1;exitX=0.5;exitY=1;exitDx=0;exitDy=0;entryX=0;entryY=0.5;entryDx=0;entryDy=0;" parent="1" source="wvYjEetLXpeZo1KLkmKn-5" target="wvYjEetLXpeZo1KLkmKn-17" edge="1">
          <mxGeometry relative="1" as="geometry">
            <mxPoint x="270" y="367.5" as="targetPoint" />
          </mxGeometry>
        </mxCell>
        <mxCell id="wvYjEetLXpeZo1KLkmKn-5" value="DESAYUNAR" style="rounded=1;whiteSpace=wrap;html=1;" parent="1" vertex="1">
          <mxGeometry x="100" y="260" width="120" height="50" as="geometry" />
        </mxCell>
        <mxCell id="wvYjEetLXpeZo1KLkmKn-15" style="edgeStyle=orthogonalEdgeStyle;rounded=0;orthogonalLoop=1;jettySize=auto;html=1;exitX=0.5;exitY=1;exitDx=0;exitDy=0;entryX=1;entryY=0.5;entryDx=0;entryDy=0;" parent="1" source="wvYjEetLXpeZo1KLkmKn-6" target="wvYjEetLXpeZo1KLkmKn-17" edge="1">
          <mxGeometry relative="1" as="geometry">
            <mxPoint x="310" y="367.5" as="targetPoint" />
          </mxGeometry>
        </mxCell>
        <mxCell id="wvYjEetLXpeZo1KLkmKn-6" value="NO DESAYUNAR" style="rounded=1;whiteSpace=wrap;html=1;" parent="1" vertex="1">
          <mxGeometry x="360" y="260" width="120" height="50" as="geometry" />
        </mxCell>
        <mxCell id="wvYjEetLXpeZo1KLkmKn-9" style="edgeStyle=orthogonalEdgeStyle;rounded=0;orthogonalLoop=1;jettySize=auto;html=1;exitX=1;exitY=0.5;exitDx=0;exitDy=0;entryX=0.5;entryY=0;entryDx=0;entryDy=0;" parent="1" source="wvYjEetLXpeZo1KLkmKn-8" target="wvYjEetLXpeZo1KLkmKn-6" edge="1">
          <mxGeometry relative="1" as="geometry" />
        </mxCell>
        <mxCell id="wvYjEetLXpeZo1KLkmKn-10" style="edgeStyle=orthogonalEdgeStyle;rounded=0;orthogonalLoop=1;jettySize=auto;html=1;exitX=0;exitY=0.5;exitDx=0;exitDy=0;entryX=0.5;entryY=0;entryDx=0;entryDy=0;" parent="1" source="wvYjEetLXpeZo1KLkmKn-8" target="wvYjEetLXpeZo1KLkmKn-5" edge="1">
          <mxGeometry relative="1" as="geometry" />
        </mxCell>
        <mxCell id="wvYjEetLXpeZo1KLkmKn-8" value="" style="rhombus;whiteSpace=wrap;html=1;" parent="1" vertex="1">
          <mxGeometry x="270" y="220" width="40" height="35" as="geometry" />
        </mxCell>
        <mxCell id="wvYjEetLXpeZo1KLkmKn-20" style="edgeStyle=orthogonalEdgeStyle;rounded=0;orthogonalLoop=1;jettySize=auto;html=1;exitX=0.5;exitY=1;exitDx=0;exitDy=0;entryX=0.5;entryY=0;entryDx=0;entryDy=0;" parent="1" source="wvYjEetLXpeZo1KLkmKn-17" target="wvYjEetLXpeZo1KLkmKn-18" edge="1">
          <mxGeometry relative="1" as="geometry" />
        </mxCell>
        <mxCell id="wvYjEetLXpeZo1KLkmKn-17" value="VA AL TRABAJO" style="rounded=1;whiteSpace=wrap;html=1;" parent="1" vertex="1">
          <mxGeometry x="230" y="340" width="120" height="50" as="geometry" />
        </mxCell>
        <mxCell id="wvYjEetLXpeZo1KLkmKn-21" style="edgeStyle=orthogonalEdgeStyle;rounded=0;orthogonalLoop=1;jettySize=auto;html=1;exitX=0.5;exitY=1;exitDx=0;exitDy=0;" parent="1" source="wvYjEetLXpeZo1KLkmKn-18" edge="1">
          <mxGeometry relative="1" as="geometry">
            <mxPoint x="290" y="520" as="targetPoint" />
          </mxGeometry>
        </mxCell>
        <mxCell id="wvYjEetLXpeZo1KLkmKn-18" value="VUELVE A CASA" style="rounded=1;whiteSpace=wrap;html=1;" parent="1" vertex="1">
          <mxGeometry x="230" y="430" width="120" height="50" as="geometry" />
        </mxCell>
        <mxCell id="wvYjEetLXpeZo1KLkmKn-19" value="" style="endArrow=none;html=1;rounded=0;" parent="1" edge="1">
          <mxGeometry width="50" height="50" relative="1" as="geometry">
            <mxPoint x="80" y="520" as="sourcePoint" />
            <mxPoint x="490" y="520" as="targetPoint" />
          </mxGeometry>
        </mxCell>
        <mxCell id="wvYjEetLXpeZo1KLkmKn-33" style="edgeStyle=orthogonalEdgeStyle;rounded=0;orthogonalLoop=1;jettySize=auto;html=1;exitX=0.5;exitY=1;exitDx=0;exitDy=0;" parent="1" source="wvYjEetLXpeZo1KLkmKn-22" edge="1">
          <mxGeometry relative="1" as="geometry">
            <mxPoint x="150" y="660" as="targetPoint" />
          </mxGeometry>
        </mxCell>
        <mxCell id="wvYjEetLXpeZo1KLkmKn-22" value="VUELVE A CASA" style="rounded=1;whiteSpace=wrap;html=1;" parent="1" vertex="1">
          <mxGeometry x="90" y="560" width="120" height="50" as="geometry" />
        </mxCell>
        <mxCell id="wvYjEetLXpeZo1KLkmKn-32" style="edgeStyle=orthogonalEdgeStyle;rounded=0;orthogonalLoop=1;jettySize=auto;html=1;exitX=0.5;exitY=1;exitDx=0;exitDy=0;" parent="1" source="wvYjEetLXpeZo1KLkmKn-23" edge="1">
          <mxGeometry relative="1" as="geometry">
            <mxPoint x="290" y="660" as="targetPoint" />
          </mxGeometry>
        </mxCell>
        <mxCell id="wvYjEetLXpeZo1KLkmKn-38" style="edgeStyle=orthogonalEdgeStyle;rounded=0;orthogonalLoop=1;jettySize=auto;html=1;exitX=0.5;exitY=1;exitDx=0;exitDy=0;entryX=0.5;entryY=0;entryDx=0;entryDy=0;" parent="1" source="wvYjEetLXpeZo1KLkmKn-23" target="wvYjEetLXpeZo1KLkmKn-36" edge="1">
          <mxGeometry relative="1" as="geometry" />
        </mxCell>
        <mxCell id="wvYjEetLXpeZo1KLkmKn-23" value="VUELVE A CASA" style="rounded=1;whiteSpace=wrap;html=1;" parent="1" vertex="1">
          <mxGeometry x="230" y="560" width="120" height="50" as="geometry" />
        </mxCell>
        <mxCell id="wvYjEetLXpeZo1KLkmKn-34" style="edgeStyle=orthogonalEdgeStyle;rounded=0;orthogonalLoop=1;jettySize=auto;html=1;exitX=0.5;exitY=1;exitDx=0;exitDy=0;" parent="1" source="wvYjEetLXpeZo1KLkmKn-24" edge="1">
          <mxGeometry relative="1" as="geometry">
            <mxPoint x="430" y="660" as="targetPoint" />
          </mxGeometry>
        </mxCell>
        <mxCell id="wvYjEetLXpeZo1KLkmKn-24" value="VUELVE A CASA" style="rounded=1;whiteSpace=wrap;html=1;" parent="1" vertex="1">
          <mxGeometry x="370" y="560" width="120" height="50" as="geometry" />
        </mxCell>
        <mxCell id="wvYjEetLXpeZo1KLkmKn-25" style="edgeStyle=orthogonalEdgeStyle;rounded=0;orthogonalLoop=1;jettySize=auto;html=1;exitX=0.5;exitY=1;exitDx=0;exitDy=0;" parent="1" edge="1">
          <mxGeometry relative="1" as="geometry">
            <mxPoint x="149.5" y="560" as="targetPoint" />
            <mxPoint x="149.5" y="520" as="sourcePoint" />
          </mxGeometry>
        </mxCell>
        <mxCell id="wvYjEetLXpeZo1KLkmKn-26" style="edgeStyle=orthogonalEdgeStyle;rounded=0;orthogonalLoop=1;jettySize=auto;html=1;exitX=0.5;exitY=1;exitDx=0;exitDy=0;" parent="1" edge="1">
          <mxGeometry relative="1" as="geometry">
            <mxPoint x="289.5" y="560" as="targetPoint" />
            <mxPoint x="289.5" y="520" as="sourcePoint" />
          </mxGeometry>
        </mxCell>
        <mxCell id="wvYjEetLXpeZo1KLkmKn-27" style="edgeStyle=orthogonalEdgeStyle;rounded=0;orthogonalLoop=1;jettySize=auto;html=1;exitX=0.5;exitY=1;exitDx=0;exitDy=0;" parent="1" edge="1">
          <mxGeometry relative="1" as="geometry">
            <mxPoint x="429.5" y="560" as="targetPoint" />
            <mxPoint x="429.5" y="520" as="sourcePoint" />
          </mxGeometry>
        </mxCell>
        <mxCell id="wvYjEetLXpeZo1KLkmKn-28" value="" style="endArrow=none;html=1;rounded=0;" parent="1" edge="1">
          <mxGeometry width="50" height="50" relative="1" as="geometry">
            <mxPoint x="80" y="660" as="sourcePoint" />
            <mxPoint x="490" y="660" as="targetPoint" />
          </mxGeometry>
        </mxCell>
        <mxCell id="wvYjEetLXpeZo1KLkmKn-36" value="" style="ellipse;html=1;shape=endState;fillColor=#000000;strokeColor=#050000;" parent="1" vertex="1">
          <mxGeometry x="275" y="720" width="30" height="30" as="geometry" />
        </mxCell>
        <mxCell id="wvYjEetLXpeZo1KLkmKn-39" value="1" style="rounded=0;whiteSpace=wrap;html=1;" parent="1" vertex="1">
          <mxGeometry x="170" y="90" width="30" height="30" as="geometry" />
        </mxCell>
        <mxCell id="wvYjEetLXpeZo1KLkmKn-40" value="2" style="rounded=0;whiteSpace=wrap;html=1;" parent="1" vertex="1">
          <mxGeometry x="650" y="90" width="30" height="30" as="geometry" />
        </mxCell>
        <mxCell id="wvYjEetLXpeZo1KLkmKn-41" value="" style="html=1;verticalAlign=bottom;startArrow=circle;startFill=1;endArrow=open;startSize=6;endSize=8;curved=0;rounded=0;entryX=0.5;entryY=0;entryDx=0;entryDy=0;" parent="1" target="wvYjEetLXpeZo1KLkmKn-42" edge="1">
          <mxGeometry width="80" relative="1" as="geometry">
            <mxPoint x="740" y="80" as="sourcePoint" />
            <mxPoint x="740" y="160" as="targetPoint" />
          </mxGeometry>
        </mxCell>
        <mxCell id="wvYjEetLXpeZo1KLkmKn-61" style="edgeStyle=orthogonalEdgeStyle;rounded=0;orthogonalLoop=1;jettySize=auto;html=1;exitX=0.5;exitY=1;exitDx=0;exitDy=0;entryX=0.5;entryY=0;entryDx=0;entryDy=0;" parent="1" source="wvYjEetLXpeZo1KLkmKn-42" target="wvYjEetLXpeZo1KLkmKn-60" edge="1">
          <mxGeometry relative="1" as="geometry" />
        </mxCell>
        <mxCell id="wvYjEetLXpeZo1KLkmKn-42" value="INTRODUCE NUMERO FinFIBONACCI" style="rounded=1;whiteSpace=wrap;html=1;" parent="1" vertex="1">
          <mxGeometry x="680" y="140" width="120" height="50" as="geometry" />
        </mxCell>
        <mxCell id="wvYjEetLXpeZo1KLkmKn-72" style="edgeStyle=orthogonalEdgeStyle;rounded=0;orthogonalLoop=1;jettySize=auto;html=1;exitX=0.5;exitY=1;exitDx=0;exitDy=0;" parent="1" source="wvYjEetLXpeZo1KLkmKn-60" edge="1">
          <mxGeometry relative="1" as="geometry">
            <mxPoint x="740.0952380952381" y="320" as="targetPoint" />
          </mxGeometry>
        </mxCell>
        <mxCell id="wvYjEetLXpeZo1KLkmKn-60" value="SELECCIONAR POSICION" style="rounded=1;whiteSpace=wrap;html=1;" parent="1" vertex="1">
          <mxGeometry x="680" y="212.5" width="120" height="50" as="geometry" />
        </mxCell>
        <mxCell id="wvYjEetLXpeZo1KLkmKn-75" style="edgeStyle=orthogonalEdgeStyle;rounded=0;orthogonalLoop=1;jettySize=auto;html=1;exitX=0.5;exitY=1;exitDx=0;exitDy=0;" parent="1" source="wvYjEetLXpeZo1KLkmKn-63" edge="1">
          <mxGeometry relative="1" as="geometry">
            <mxPoint x="609.6190476190475" y="460" as="targetPoint" />
          </mxGeometry>
        </mxCell>
        <mxCell id="wvYjEetLXpeZo1KLkmKn-63" value="DECLARAR n = 0" style="rounded=1;whiteSpace=wrap;html=1;" parent="1" vertex="1">
          <mxGeometry x="550" y="360" width="120" height="50" as="geometry" />
        </mxCell>
        <mxCell id="wvYjEetLXpeZo1KLkmKn-76" style="edgeStyle=orthogonalEdgeStyle;rounded=0;orthogonalLoop=1;jettySize=auto;html=1;exitX=0.5;exitY=1;exitDx=0;exitDy=0;" parent="1" source="wvYjEetLXpeZo1KLkmKn-64" edge="1">
          <mxGeometry relative="1" as="geometry">
            <mxPoint x="740" y="460" as="targetPoint" />
          </mxGeometry>
        </mxCell>
        <mxCell id="wvYjEetLXpeZo1KLkmKn-64" value="DECLARAR s=1" style="rounded=1;whiteSpace=wrap;html=1;" parent="1" vertex="1">
          <mxGeometry x="680" y="360" width="120" height="50" as="geometry" />
        </mxCell>
        <mxCell id="wvYjEetLXpeZo1KLkmKn-77" style="edgeStyle=orthogonalEdgeStyle;rounded=0;orthogonalLoop=1;jettySize=auto;html=1;exitX=0.5;exitY=1;exitDx=0;exitDy=0;" parent="1" source="wvYjEetLXpeZo1KLkmKn-65" edge="1">
          <mxGeometry relative="1" as="geometry">
            <mxPoint x="869.6190476190475" y="460" as="targetPoint" />
          </mxGeometry>
        </mxCell>
        <mxCell id="wvYjEetLXpeZo1KLkmKn-65" value="DECLARAR r" style="rounded=1;whiteSpace=wrap;html=1;" parent="1" vertex="1">
          <mxGeometry x="810" y="360" width="120" height="50" as="geometry" />
        </mxCell>
        <mxCell id="wvYjEetLXpeZo1KLkmKn-66" value="" style="endArrow=classic;html=1;rounded=0;entryX=0.5;entryY=0;entryDx=0;entryDy=0;exitX=0.884;exitY=0.875;exitDx=0;exitDy=0;exitPerimeter=0;" parent="1" target="wvYjEetLXpeZo1KLkmKn-65" edge="1">
          <mxGeometry width="50" height="50" relative="1" as="geometry">
            <mxPoint x="870.56" y="317" as="sourcePoint" />
            <mxPoint x="840" y="340" as="targetPoint" />
          </mxGeometry>
        </mxCell>
        <mxCell id="wvYjEetLXpeZo1KLkmKn-69" value="" style="endArrow=classic;html=1;rounded=0;entryX=0.5;entryY=0;entryDx=0;entryDy=0;" parent="1" edge="1">
          <mxGeometry width="50" height="50" relative="1" as="geometry">
            <mxPoint x="611" y="318" as="sourcePoint" />
            <mxPoint x="610.5" y="361" as="targetPoint" />
          </mxGeometry>
        </mxCell>
        <mxCell id="wvYjEetLXpeZo1KLkmKn-71" value="" style="endArrow=none;html=1;rounded=0;" parent="1" edge="1">
          <mxGeometry width="50" height="50" relative="1" as="geometry">
            <mxPoint x="560" y="320" as="sourcePoint" />
            <mxPoint x="920" y="320" as="targetPoint" />
          </mxGeometry>
        </mxCell>
        <mxCell id="wvYjEetLXpeZo1KLkmKn-73" value="" style="endArrow=classic;html=1;rounded=0;entryX=0.5;entryY=0;entryDx=0;entryDy=0;exitX=0.497;exitY=0.875;exitDx=0;exitDy=0;exitPerimeter=0;" parent="1" edge="1">
          <mxGeometry width="50" height="50" relative="1" as="geometry">
            <mxPoint x="739.5" y="317" as="sourcePoint" />
            <mxPoint x="740.5" y="360" as="targetPoint" />
          </mxGeometry>
        </mxCell>
        <mxCell id="wvYjEetLXpeZo1KLkmKn-74" value="" style="endArrow=none;html=1;rounded=0;" parent="1" edge="1">
          <mxGeometry width="50" height="50" relative="1" as="geometry">
            <mxPoint x="560" y="460" as="sourcePoint" />
            <mxPoint x="920" y="460" as="targetPoint" />
          </mxGeometry>
        </mxCell>
        <mxCell id="wvYjEetLXpeZo1KLkmKn-81" style="edgeStyle=orthogonalEdgeStyle;rounded=0;orthogonalLoop=1;jettySize=auto;html=1;exitX=0.5;exitY=1;exitDx=0;exitDy=0;entryX=0.5;entryY=0;entryDx=0;entryDy=0;" parent="1" source="wvYjEetLXpeZo1KLkmKn-78" target="wvYjEetLXpeZo1KLkmKn-80" edge="1">
          <mxGeometry relative="1" as="geometry" />
        </mxCell>
        <mxCell id="wvYjEetLXpeZo1KLkmKn-78" value="n + s = r" style="rounded=1;whiteSpace=wrap;html=1;" parent="1" vertex="1">
          <mxGeometry x="680" y="500" width="120" height="50" as="geometry" />
        </mxCell>
        <mxCell id="wvYjEetLXpeZo1KLkmKn-79" style="edgeStyle=orthogonalEdgeStyle;rounded=0;orthogonalLoop=1;jettySize=auto;html=1;exitX=0.5;exitY=1;exitDx=0;exitDy=0;entryX=0.5;entryY=0;entryDx=0;entryDy=0;" parent="1" target="wvYjEetLXpeZo1KLkmKn-78" edge="1">
          <mxGeometry relative="1" as="geometry">
            <mxPoint x="739.52" y="510" as="targetPoint" />
            <mxPoint x="739.52" y="460" as="sourcePoint" />
          </mxGeometry>
        </mxCell>
        <mxCell id="wvYjEetLXpeZo1KLkmKn-83" style="edgeStyle=orthogonalEdgeStyle;rounded=0;orthogonalLoop=1;jettySize=auto;html=1;exitX=0.5;exitY=1;exitDx=0;exitDy=0;entryX=0.5;entryY=0;entryDx=0;entryDy=0;" parent="1" source="wvYjEetLXpeZo1KLkmKn-80" target="wvYjEetLXpeZo1KLkmKn-82" edge="1">
          <mxGeometry relative="1" as="geometry" />
        </mxCell>
        <mxCell id="wvYjEetLXpeZo1KLkmKn-80" value="n = s&lt;br&gt;s = r" style="rounded=1;whiteSpace=wrap;html=1;" parent="1" vertex="1">
          <mxGeometry x="680" y="580" width="120" height="50" as="geometry" />
        </mxCell>
        <mxCell id="wvYjEetLXpeZo1KLkmKn-94" style="edgeStyle=orthogonalEdgeStyle;rounded=0;orthogonalLoop=1;jettySize=auto;html=1;exitX=0.5;exitY=1;exitDx=0;exitDy=0;entryX=0.5;entryY=0;entryDx=0;entryDy=0;" parent="1" source="wvYjEetLXpeZo1KLkmKn-82" target="wvYjEetLXpeZo1KLkmKn-91" edge="1">
          <mxGeometry relative="1" as="geometry" />
        </mxCell>
        <mxCell id="wvYjEetLXpeZo1KLkmKn-82" value="r = n + s" style="rounded=1;whiteSpace=wrap;html=1;" parent="1" vertex="1">
          <mxGeometry x="680" y="660" width="120" height="50" as="geometry" />
        </mxCell>
        <mxCell id="wvYjEetLXpeZo1KLkmKn-88" style="edgeStyle=orthogonalEdgeStyle;rounded=0;orthogonalLoop=1;jettySize=auto;html=1;exitX=0.5;exitY=1;exitDx=0;exitDy=0;entryX=0.5;entryY=0;entryDx=0;entryDy=0;" parent="1" source="wvYjEetLXpeZo1KLkmKn-84" target="wvYjEetLXpeZo1KLkmKn-86" edge="1">
          <mxGeometry relative="1" as="geometry" />
        </mxCell>
        <mxCell id="wvYjEetLXpeZo1KLkmKn-84" value="mostrar r" style="rounded=1;whiteSpace=wrap;html=1;" parent="1" vertex="1">
          <mxGeometry x="680" y="830" width="120" height="50" as="geometry" />
        </mxCell>
        <mxCell id="wvYjEetLXpeZo1KLkmKn-86" value="" style="ellipse;html=1;shape=endState;fillColor=#000000;strokeColor=#050000;" parent="1" vertex="1">
          <mxGeometry x="725" y="910" width="30" height="30" as="geometry" />
        </mxCell>
        <mxCell id="wvYjEetLXpeZo1KLkmKn-93" style="edgeStyle=orthogonalEdgeStyle;rounded=0;orthogonalLoop=1;jettySize=auto;html=1;exitX=0;exitY=0.5;exitDx=0;exitDy=0;" parent="1" source="wvYjEetLXpeZo1KLkmKn-91" edge="1">
          <mxGeometry relative="1" as="geometry">
            <mxPoint x="740.0000000000005" y="560" as="targetPoint" />
            <Array as="points">
              <mxPoint x="650" y="758" />
              <mxPoint x="650" y="560" />
            </Array>
          </mxGeometry>
        </mxCell>
        <mxCell id="wvYjEetLXpeZo1KLkmKn-96" style="edgeStyle=orthogonalEdgeStyle;rounded=0;orthogonalLoop=1;jettySize=auto;html=1;exitX=0.5;exitY=1;exitDx=0;exitDy=0;entryX=0.5;entryY=0;entryDx=0;entryDy=0;" parent="1" source="wvYjEetLXpeZo1KLkmKn-91" target="wvYjEetLXpeZo1KLkmKn-84" edge="1">
          <mxGeometry relative="1" as="geometry" />
        </mxCell>
        <mxCell id="wvYjEetLXpeZo1KLkmKn-91" value="" style="rhombus;whiteSpace=wrap;html=1;" parent="1" vertex="1">
          <mxGeometry x="720" y="740" width="40" height="35" as="geometry" />
        </mxCell>
        <mxCell id="wvYjEetLXpeZo1KLkmKn-95" value="SI POSICION != FinFIBONACCI" style="text;html=1;align=center;verticalAlign=middle;whiteSpace=wrap;rounded=0;" parent="1" vertex="1">
          <mxGeometry x="540" y="630" width="120" height="50" as="geometry" />
        </mxCell>
        <mxCell id="wvYjEetLXpeZo1KLkmKn-97" value="SI POSICION == FinFIBONACCI" style="text;html=1;align=center;verticalAlign=middle;whiteSpace=wrap;rounded=0;" parent="1" vertex="1">
          <mxGeometry x="630" y="775" width="120" height="50" as="geometry" />
        </mxCell>
        <mxCell id="wvYjEetLXpeZo1KLkmKn-98" value="3" style="rounded=0;whiteSpace=wrap;html=1;" parent="1" vertex="1">
          <mxGeometry x="1090" y="90" width="30" height="30" as="geometry" />
        </mxCell>
        <mxCell id="wvYjEetLXpeZo1KLkmKn-99" value="" style="html=1;verticalAlign=bottom;startArrow=circle;startFill=1;endArrow=open;startSize=6;endSize=8;curved=0;rounded=0;entryX=0.5;entryY=0;entryDx=0;entryDy=0;" parent="1" target="wvYjEetLXpeZo1KLkmKn-100" edge="1">
          <mxGeometry width="80" relative="1" as="geometry">
            <mxPoint x="1250" y="90" as="sourcePoint" />
            <mxPoint x="1250" y="170" as="targetPoint" />
          </mxGeometry>
        </mxCell>
        <mxCell id="wvYjEetLXpeZo1KLkmKn-103" style="edgeStyle=orthogonalEdgeStyle;rounded=0;orthogonalLoop=1;jettySize=auto;html=1;exitX=0.5;exitY=1;exitDx=0;exitDy=0;entryX=0.5;entryY=0;entryDx=0;entryDy=0;" parent="1" source="wvYjEetLXpeZo1KLkmKn-100" target="wvYjEetLXpeZo1KLkmKn-101" edge="1">
          <mxGeometry relative="1" as="geometry" />
        </mxCell>
        <mxCell id="wvYjEetLXpeZo1KLkmKn-100" value="llamar a cliente y concertar cita" style="rounded=1;whiteSpace=wrap;html=1;" parent="1" vertex="1">
          <mxGeometry x="1190" y="150" width="120" height="50" as="geometry" />
        </mxCell>
        <mxCell id="wvYjEetLXpeZo1KLkmKn-105" style="edgeStyle=orthogonalEdgeStyle;rounded=0;orthogonalLoop=1;jettySize=auto;html=1;exitX=0;exitY=0.5;exitDx=0;exitDy=0;entryX=1;entryY=0.5;entryDx=0;entryDy=0;" parent="1" source="wvYjEetLXpeZo1KLkmKn-101" target="wvYjEetLXpeZo1KLkmKn-104" edge="1">
          <mxGeometry relative="1" as="geometry" />
        </mxCell>
        <mxCell id="wvYjEetLXpeZo1KLkmKn-108" style="edgeStyle=orthogonalEdgeStyle;rounded=0;orthogonalLoop=1;jettySize=auto;html=1;exitX=0.5;exitY=1;exitDx=0;exitDy=0;entryX=0.5;entryY=0;entryDx=0;entryDy=0;" parent="1" source="wvYjEetLXpeZo1KLkmKn-101" target="wvYjEetLXpeZo1KLkmKn-107" edge="1">
          <mxGeometry relative="1" as="geometry" />
        </mxCell>
        <mxCell id="wvYjEetLXpeZo1KLkmKn-115" style="edgeStyle=orthogonalEdgeStyle;rounded=0;orthogonalLoop=1;jettySize=auto;html=1;exitX=1;exitY=0.5;exitDx=0;exitDy=0;entryX=0.5;entryY=0;entryDx=0;entryDy=0;" parent="1" source="wvYjEetLXpeZo1KLkmKn-101" target="wvYjEetLXpeZo1KLkmKn-114" edge="1">
          <mxGeometry relative="1" as="geometry" />
        </mxCell>
        <mxCell id="wvYjEetLXpeZo1KLkmKn-101" value="" style="rhombus;whiteSpace=wrap;html=1;" parent="1" vertex="1">
          <mxGeometry x="1230" y="230" width="40" height="40" as="geometry" />
        </mxCell>
        <mxCell id="wvYjEetLXpeZo1KLkmKn-104" value="" style="ellipse;html=1;shape=endState;fillColor=#000000;strokeColor=#050000;" parent="1" vertex="1">
          <mxGeometry x="1070" y="235" width="30" height="30" as="geometry" />
        </mxCell>
        <mxCell id="wvYjEetLXpeZo1KLkmKn-119" style="edgeStyle=orthogonalEdgeStyle;rounded=0;orthogonalLoop=1;jettySize=auto;html=1;exitX=0.5;exitY=1;exitDx=0;exitDy=0;entryX=0.5;entryY=0;entryDx=0;entryDy=0;" parent="1" source="wvYjEetLXpeZo1KLkmKn-107" target="wvYjEetLXpeZo1KLkmKn-118" edge="1">
          <mxGeometry relative="1" as="geometry" />
        </mxCell>
        <mxCell id="wvYjEetLXpeZo1KLkmKn-107" value="preparar sala de conferencia" style="rounded=1;whiteSpace=wrap;html=1;" parent="1" vertex="1">
          <mxGeometry x="1190" y="310" width="120" height="50" as="geometry" />
        </mxCell>
        <mxCell id="wvYjEetLXpeZo1KLkmKn-109" value="si acepta" style="text;html=1;align=center;verticalAlign=middle;whiteSpace=wrap;rounded=0;" parent="1" vertex="1">
          <mxGeometry x="1190" y="270" width="60" height="30" as="geometry" />
        </mxCell>
        <mxCell id="wvYjEetLXpeZo1KLkmKn-112" value="si no acepta" style="text;html=1;align=center;verticalAlign=middle;whiteSpace=wrap;rounded=0;" parent="1" vertex="1">
          <mxGeometry x="1170" y="212.5" width="60" height="30" as="geometry" />
        </mxCell>
        <mxCell id="wvYjEetLXpeZo1KLkmKn-120" style="edgeStyle=orthogonalEdgeStyle;rounded=0;orthogonalLoop=1;jettySize=auto;html=1;exitX=0.5;exitY=1;exitDx=0;exitDy=0;" parent="1" source="wvYjEetLXpeZo1KLkmKn-114" edge="1">
          <mxGeometry relative="1" as="geometry">
            <mxPoint x="1340.0000000000005" y="410" as="targetPoint" />
          </mxGeometry>
        </mxCell>
        <mxCell id="wvYjEetLXpeZo1KLkmKn-114" value="preparar negociaciÃ³n en portÃ¡til" style="rounded=1;whiteSpace=wrap;html=1;" parent="1" vertex="1">
          <mxGeometry x="1350" y="310" width="120" height="50" as="geometry" />
        </mxCell>
        <mxCell id="wvYjEetLXpeZo1KLkmKn-117" value="si acepta cita en otro lugar" style="text;html=1;align=center;verticalAlign=middle;whiteSpace=wrap;rounded=0;" parent="1" vertex="1">
          <mxGeometry x="1340" y="262.5" width="60" height="30" as="geometry" />
        </mxCell>
        <mxCell id="wvYjEetLXpeZo1KLkmKn-123" style="edgeStyle=orthogonalEdgeStyle;rounded=0;orthogonalLoop=1;jettySize=auto;html=1;exitX=0.5;exitY=1;exitDx=0;exitDy=0;entryX=0.5;entryY=0;entryDx=0;entryDy=0;" parent="1" source="wvYjEetLXpeZo1KLkmKn-118" target="wvYjEetLXpeZo1KLkmKn-121" edge="1">
          <mxGeometry relative="1" as="geometry" />
        </mxCell>
        <mxCell id="wvYjEetLXpeZo1KLkmKn-118" value="junta con el cliente" style="rounded=1;whiteSpace=wrap;html=1;" parent="1" vertex="1">
          <mxGeometry x="1280" y="410" width="120" height="50" as="geometry" />
        </mxCell>
        <mxCell id="wvYjEetLXpeZo1KLkmKn-124" style="edgeStyle=orthogonalEdgeStyle;rounded=0;orthogonalLoop=1;jettySize=auto;html=1;exitX=0.5;exitY=1;exitDx=0;exitDy=0;entryX=0.5;entryY=0;entryDx=0;entryDy=0;" parent="1" source="wvYjEetLXpeZo1KLkmKn-121" target="wvYjEetLXpeZo1KLkmKn-122" edge="1">
          <mxGeometry relative="1" as="geometry" />
        </mxCell>
        <mxCell id="wvYjEetLXpeZo1KLkmKn-121" value="generar borrador de junta" style="rounded=1;whiteSpace=wrap;html=1;" parent="1" vertex="1">
          <mxGeometry x="1280" y="490" width="120" height="50" as="geometry" />
        </mxCell>
        <mxCell id="wvYjEetLXpeZo1KLkmKn-126" style="edgeStyle=orthogonalEdgeStyle;rounded=0;orthogonalLoop=1;jettySize=auto;html=1;exitX=0.5;exitY=1;exitDx=0;exitDy=0;entryX=0.5;entryY=0;entryDx=0;entryDy=0;" parent="1" source="wvYjEetLXpeZo1KLkmKn-122" target="wvYjEetLXpeZo1KLkmKn-125" edge="1">
          <mxGeometry relative="1" as="geometry" />
        </mxCell>
        <mxCell id="wvYjEetLXpeZo1KLkmKn-122" value="enviar borrador a cliente y empresa" style="rounded=1;whiteSpace=wrap;html=1;" parent="1" vertex="1">
          <mxGeometry x="1280" y="570" width="120" height="50" as="geometry" />
        </mxCell>
        <mxCell id="wvYjEetLXpeZo1KLkmKn-128" style="edgeStyle=orthogonalEdgeStyle;rounded=0;orthogonalLoop=1;jettySize=auto;html=1;exitX=0;exitY=0.5;exitDx=0;exitDy=0;entryX=1;entryY=0.5;entryDx=0;entryDy=0;" parent="1" source="wvYjEetLXpeZo1KLkmKn-125" target="wvYjEetLXpeZo1KLkmKn-127" edge="1">
          <mxGeometry relative="1" as="geometry" />
        </mxCell>
        <mxCell id="wvYjEetLXpeZo1KLkmKn-137" style="edgeStyle=orthogonalEdgeStyle;rounded=0;orthogonalLoop=1;jettySize=auto;html=1;exitX=0.5;exitY=1;exitDx=0;exitDy=0;" parent="1" source="wvYjEetLXpeZo1KLkmKn-125" edge="1">
          <mxGeometry relative="1" as="geometry">
            <mxPoint x="1250" y="130" as="targetPoint" />
            <Array as="points">
              <mxPoint x="1340" y="700" />
              <mxPoint x="1520" y="700" />
              <mxPoint x="1520" y="130" />
            </Array>
          </mxGeometry>
        </mxCell>
        <mxCell id="wvYjEetLXpeZo1KLkmKn-125" value="" style="rhombus;whiteSpace=wrap;html=1;" parent="1" vertex="1">
          <mxGeometry x="1320" y="640" width="40" height="40" as="geometry" />
        </mxCell>
        <mxCell id="wvYjEetLXpeZo1KLkmKn-127" value="" style="ellipse;html=1;shape=endState;fillColor=#000000;strokeColor=#050000;" parent="1" vertex="1">
          <mxGeometry x="1080" y="645" width="30" height="30" as="geometry" />
        </mxCell>
        <mxCell id="wvYjEetLXpeZo1KLkmKn-129" value="si no se plantea problema" style="text;html=1;align=center;verticalAlign=middle;whiteSpace=wrap;rounded=0;" parent="1" vertex="1">
          <mxGeometry x="1170" y="630" width="89" height="30" as="geometry" />
        </mxCell>
        <mxCell id="wvYjEetLXpeZo1KLkmKn-138" value="si se plantea problema" style="text;html=1;align=center;verticalAlign=middle;whiteSpace=wrap;rounded=0;" parent="1" vertex="1">
          <mxGeometry x="1390" y="710" width="89" height="30" as="geometry" />
        </mxCell>
        <mxCell id="vyCPet9ZvcBCag2oU1Ab-1" value="4" style="rounded=0;whiteSpace=wrap;html=1;" parent="1" vertex="1">
          <mxGeometry x="1690" y="90" width="30" height="30" as="geometry" />
        </mxCell>
        <mxCell id="vyCPet9ZvcBCag2oU1Ab-2" value="" style="html=1;verticalAlign=bottom;startArrow=circle;startFill=1;endArrow=open;startSize=6;endSize=8;curved=0;rounded=0;entryX=0.5;entryY=0;entryDx=0;entryDy=0;" parent="1" target="vyCPet9ZvcBCag2oU1Ab-3" edge="1">
          <mxGeometry width="80" relative="1" as="geometry">
            <mxPoint x="1880" y="77.5" as="sourcePoint" />
            <mxPoint x="1880" y="157.5" as="targetPoint" />
          </mxGeometry>
        </mxCell>
        <mxCell id="vyCPet9ZvcBCag2oU1Ab-19" style="edgeStyle=none;curved=1;rounded=0;orthogonalLoop=1;jettySize=auto;html=1;exitX=0.5;exitY=1;exitDx=0;exitDy=0;entryX=0.5;entryY=0;entryDx=0;entryDy=0;fontSize=12;startSize=8;endSize=8;" parent="1" source="vyCPet9ZvcBCag2oU1Ab-3" target="vyCPet9ZvcBCag2oU1Ab-16" edge="1">
          <mxGeometry relative="1" as="geometry" />
        </mxCell>
        <mxCell id="vyCPet9ZvcBCag2oU1Ab-3" value="llamar a cliente y concertar cita" style="rounded=1;whiteSpace=wrap;html=1;" parent="1" vertex="1">
          <mxGeometry x="1820" y="125" width="120" height="50" as="geometry" />
        </mxCell>
        <mxCell id="vyCPet9ZvcBCag2oU1Ab-7" value="" style="rounded=0;whiteSpace=wrap;html=1;fillColor=default;" parent="1" vertex="1">
          <mxGeometry x="1740" y="10" width="220" height="50" as="geometry" />
        </mxCell>
        <mxCell id="vyCPet9ZvcBCag2oU1Ab-8" value="" style="rounded=0;whiteSpace=wrap;html=1;fillColor=default;" parent="1" vertex="1">
          <mxGeometry x="1960" y="10" width="230" height="50" as="geometry" />
        </mxCell>
        <mxCell id="vyCPet9ZvcBCag2oU1Ab-9" value="" style="rounded=0;whiteSpace=wrap;html=1;fillColor=default;" parent="1" vertex="1">
          <mxGeometry x="2190" y="10" width="230" height="50" as="geometry" />
        </mxCell>
        <mxCell id="vyCPet9ZvcBCag2oU1Ab-10" value="Secretario" style="text;html=1;align=center;verticalAlign=middle;whiteSpace=wrap;rounded=0;fontSize=16;" parent="1" vertex="1">
          <mxGeometry x="1795" y="15" width="110" height="40" as="geometry" />
        </mxCell>
        <mxCell id="vyCPet9ZvcBCag2oU1Ab-12" value="Consultor" style="text;html=1;align=center;verticalAlign=middle;whiteSpace=wrap;rounded=0;fontSize=16;" parent="1" vertex="1">
          <mxGeometry x="2013" y="15" width="110" height="40" as="geometry" />
        </mxCell>
        <mxCell id="vyCPet9ZvcBCag2oU1Ab-13" value="Tecnico" style="text;html=1;align=center;verticalAlign=middle;whiteSpace=wrap;rounded=0;fontSize=16;" parent="1" vertex="1">
          <mxGeometry x="2250" y="15" width="110" height="40" as="geometry" />
        </mxCell>
        <mxCell id="vyCPet9ZvcBCag2oU1Ab-14" style="edgeStyle=orthogonalEdgeStyle;rounded=0;orthogonalLoop=1;jettySize=auto;html=1;exitX=0;exitY=0.5;exitDx=0;exitDy=0;entryX=1;entryY=0.5;entryDx=0;entryDy=0;" parent="1" source="vyCPet9ZvcBCag2oU1Ab-16" target="vyCPet9ZvcBCag2oU1Ab-17" edge="1">
          <mxGeometry relative="1" as="geometry" />
        </mxCell>
        <mxCell id="vyCPet9ZvcBCag2oU1Ab-36" style="edgeStyle=none;curved=1;rounded=0;orthogonalLoop=1;jettySize=auto;html=1;exitX=0.5;exitY=1;exitDx=0;exitDy=0;entryX=0.5;entryY=0;entryDx=0;entryDy=0;fontSize=12;startSize=8;endSize=8;" parent="1" source="vyCPet9ZvcBCag2oU1Ab-16" target="vyCPet9ZvcBCag2oU1Ab-21" edge="1">
          <mxGeometry relative="1" as="geometry">
            <Array as="points">
              <mxPoint x="2020" y="260" />
            </Array>
          </mxGeometry>
        </mxCell>
        <mxCell id="vyCPet9ZvcBCag2oU1Ab-37" style="edgeStyle=none;curved=1;rounded=0;orthogonalLoop=1;jettySize=auto;html=1;exitX=1;exitY=0.5;exitDx=0;exitDy=0;entryX=0.5;entryY=0;entryDx=0;entryDy=0;fontSize=12;startSize=8;endSize=8;" parent="1" source="vyCPet9ZvcBCag2oU1Ab-16" target="vyCPet9ZvcBCag2oU1Ab-23" edge="1">
          <mxGeometry relative="1" as="geometry">
            <Array as="points">
              <mxPoint x="2320" y="170" />
            </Array>
          </mxGeometry>
        </mxCell>
        <mxCell id="vyCPet9ZvcBCag2oU1Ab-16" value="" style="rhombus;whiteSpace=wrap;html=1;" parent="1" vertex="1">
          <mxGeometry x="1860" y="215" width="40" height="40" as="geometry" />
        </mxCell>
        <mxCell id="vyCPet9ZvcBCag2oU1Ab-17" value="" style="ellipse;html=1;shape=endState;fillColor=#000000;strokeColor=#050000;" parent="1" vertex="1">
          <mxGeometry x="1760" y="220" width="30" height="30" as="geometry" />
        </mxCell>
        <mxCell id="vyCPet9ZvcBCag2oU1Ab-18" value="si no acepta" style="text;html=1;align=center;verticalAlign=middle;whiteSpace=wrap;rounded=0;" parent="1" vertex="1">
          <mxGeometry x="1800" y="197.5" width="60" height="37.5" as="geometry" />
        </mxCell>
        <mxCell id="vyCPet9ZvcBCag2oU1Ab-68" style="edgeStyle=none;curved=1;rounded=0;orthogonalLoop=1;jettySize=auto;html=1;exitX=1;exitY=0.5;exitDx=0;exitDy=0;entryX=0;entryY=0.5;entryDx=0;entryDy=0;fontSize=12;startSize=8;endSize=8;" parent="1" source="vyCPet9ZvcBCag2oU1Ab-21" target="vyCPet9ZvcBCag2oU1Ab-38" edge="1">
          <mxGeometry relative="1" as="geometry" />
        </mxCell>
        <mxCell id="vyCPet9ZvcBCag2oU1Ab-21" value="preparar sala de conferencia" style="rounded=1;whiteSpace=wrap;html=1;" parent="1" vertex="1">
          <mxGeometry x="1983" y="280" width="120" height="50" as="geometry" />
        </mxCell>
        <mxCell id="vyCPet9ZvcBCag2oU1Ab-22" value="si acepta" style="text;html=1;align=center;verticalAlign=middle;whiteSpace=wrap;rounded=0;" parent="1" vertex="1">
          <mxGeometry x="2013" y="240" width="60" height="30" as="geometry" />
        </mxCell>
        <mxCell id="vyCPet9ZvcBCag2oU1Ab-42" style="edgeStyle=none;curved=1;rounded=0;orthogonalLoop=1;jettySize=auto;html=1;exitX=0.5;exitY=1;exitDx=0;exitDy=0;entryX=0.5;entryY=0;entryDx=0;entryDy=0;fontSize=12;startSize=8;endSize=8;" parent="1" source="vyCPet9ZvcBCag2oU1Ab-23" target="vyCPet9ZvcBCag2oU1Ab-39" edge="1">
          <mxGeometry relative="1" as="geometry" />
        </mxCell>
        <mxCell id="vyCPet9ZvcBCag2oU1Ab-23" value="preparar negociaciÃ³n en portÃ¡til" style="rounded=1;whiteSpace=wrap;html=1;" parent="1" vertex="1">
          <mxGeometry x="2295" y="280" width="120" height="50" as="geometry" />
        </mxCell>
        <mxCell id="vyCPet9ZvcBCag2oU1Ab-24" value="si acepta cita en otro lugar" style="text;html=1;align=center;verticalAlign=middle;whiteSpace=wrap;rounded=0;" parent="1" vertex="1">
          <mxGeometry x="2280" y="235" width="60" height="30" as="geometry" />
        </mxCell>
        <mxCell id="vyCPet9ZvcBCag2oU1Ab-51" style="edgeStyle=none;curved=1;rounded=0;orthogonalLoop=1;jettySize=auto;html=1;exitX=0.5;exitY=1;exitDx=0;exitDy=0;entryX=0.5;entryY=0;entryDx=0;entryDy=0;fontSize=12;startSize=8;endSize=8;" parent="1" source="vyCPet9ZvcBCag2oU1Ab-38" target="vyCPet9ZvcBCag2oU1Ab-46" edge="1">
          <mxGeometry relative="1" as="geometry" />
        </mxCell>
        <mxCell id="vyCPet9ZvcBCag2oU1Ab-38" value="junta con el cliente" style="rounded=1;whiteSpace=wrap;html=1;" parent="1" vertex="1">
          <mxGeometry x="2130" y="280" width="120" height="50" as="geometry" />
        </mxCell>
        <mxCell id="vyCPet9ZvcBCag2oU1Ab-43" style="edgeStyle=none;curved=1;rounded=0;orthogonalLoop=1;jettySize=auto;html=1;exitX=0.5;exitY=1;exitDx=0;exitDy=0;entryX=0.5;entryY=0;entryDx=0;entryDy=0;fontSize=12;startSize=8;endSize=8;" parent="1" source="vyCPet9ZvcBCag2oU1Ab-39" target="vyCPet9ZvcBCag2oU1Ab-40" edge="1">
          <mxGeometry relative="1" as="geometry" />
        </mxCell>
        <mxCell id="vyCPet9ZvcBCag2oU1Ab-39" value="generar borrador de junta" style="rounded=1;whiteSpace=wrap;html=1;" parent="1" vertex="1">
          <mxGeometry x="2295" y="360" width="120" height="50" as="geometry" />
        </mxCell>
        <mxCell id="vyCPet9ZvcBCag2oU1Ab-69" style="edgeStyle=none;curved=1;rounded=0;orthogonalLoop=1;jettySize=auto;html=1;exitX=0;exitY=0.5;exitDx=0;exitDy=0;entryX=1;entryY=0.5;entryDx=0;entryDy=0;fontSize=12;startSize=8;endSize=8;" parent="1" source="vyCPet9ZvcBCag2oU1Ab-40" target="vyCPet9ZvcBCag2oU1Ab-38" edge="1">
          <mxGeometry relative="1" as="geometry">
            <Array as="points">
              <mxPoint x="2290" y="370" />
            </Array>
          </mxGeometry>
        </mxCell>
        <mxCell id="vyCPet9ZvcBCag2oU1Ab-40" value="enviar borrador a cliente y empresa" style="rounded=1;whiteSpace=wrap;html=1;" parent="1" vertex="1">
          <mxGeometry x="2295" y="440" width="120" height="50" as="geometry" />
        </mxCell>
        <mxCell id="vyCPet9ZvcBCag2oU1Ab-50" style="edgeStyle=none;curved=1;rounded=0;orthogonalLoop=1;jettySize=auto;html=1;exitX=0.5;exitY=1;exitDx=0;exitDy=0;entryX=0.5;entryY=0;entryDx=0;entryDy=0;fontSize=12;startSize=8;endSize=8;" parent="1" source="vyCPet9ZvcBCag2oU1Ab-46" target="vyCPet9ZvcBCag2oU1Ab-49" edge="1">
          <mxGeometry relative="1" as="geometry" />
        </mxCell>
        <mxCell id="vyCPet9ZvcBCag2oU1Ab-72" style="edgeStyle=none;curved=1;rounded=0;orthogonalLoop=1;jettySize=auto;html=1;exitX=1;exitY=0.5;exitDx=0;exitDy=0;entryX=1;entryY=0.5;entryDx=0;entryDy=0;fontSize=12;startSize=8;endSize=8;fillColor=#fff2cc;strokeColor=#d6b656;strokeWidth=3;" parent="1" source="vyCPet9ZvcBCag2oU1Ab-46" target="vyCPet9ZvcBCag2oU1Ab-3" edge="1">
          <mxGeometry relative="1" as="geometry">
            <Array as="points">
              <mxPoint x="2400" y="190" />
            </Array>
          </mxGeometry>
        </mxCell>
        <mxCell id="vyCPet9ZvcBCag2oU1Ab-46" value="" style="rhombus;whiteSpace=wrap;html=1;" parent="1" vertex="1">
          <mxGeometry x="2170" y="370" width="40" height="40" as="geometry" />
        </mxCell>
        <mxCell id="vyCPet9ZvcBCag2oU1Ab-47" value="si no se plantea problema" style="text;html=1;align=center;verticalAlign=middle;whiteSpace=wrap;rounded=0;" parent="1" vertex="1">
          <mxGeometry x="2090" y="420" width="89" height="30" as="geometry" />
        </mxCell>
        <mxCell id="vyCPet9ZvcBCag2oU1Ab-48" value="si se plantea problema" style="text;html=1;align=center;verticalAlign=middle;whiteSpace=wrap;rounded=0;" parent="1" vertex="1">
          <mxGeometry x="2050" y="125" width="89" height="30" as="geometry" />
        </mxCell>
        <mxCell id="vyCPet9ZvcBCag2oU1Ab-49" value="" style="ellipse;html=1;shape=endState;fillColor=#000000;strokeColor=#050000;" parent="1" vertex="1">
          <mxGeometry x="2175" y="470" width="30" height="30" as="geometry" />
        </mxCell>
        <mxCell id="vyCPet9ZvcBCag2oU1Ab-54" value="" style="rounded=0;whiteSpace=wrap;html=1;fillColor=none;strokeWidth=2;" parent="1" vertex="1">
          <mxGeometry x="1740" y="60" width="220" height="490" as="geometry" />
        </mxCell>
        <mxCell id="vyCPet9ZvcBCag2oU1Ab-61" value="5" style="rounded=0;whiteSpace=wrap;html=1;" parent="1" vertex="1">
          <mxGeometry x="90" y="970" width="30" height="30" as="geometry" />
        </mxCell>
        <mxCell id="vyCPet9ZvcBCag2oU1Ab-62" value="" style="html=1;verticalAlign=bottom;startArrow=circle;startFill=1;endArrow=open;startSize=6;endSize=8;curved=0;rounded=0;" parent="1" edge="1">
          <mxGeometry width="80" relative="1" as="geometry">
            <mxPoint x="260" y="960" as="sourcePoint" />
            <mxPoint x="260" y="1040" as="targetPoint" />
          </mxGeometry>
        </mxCell>
        <mxCell id="vyCPet9ZvcBCag2oU1Ab-73" value="" style="rounded=0;whiteSpace=wrap;html=1;fillColor=none;strokeWidth=2;" parent="1" vertex="1">
          <mxGeometry x="1960" y="60" width="230" height="490" as="geometry" />
        </mxCell>
        <mxCell id="vyCPet9ZvcBCag2oU1Ab-74" value="" style="rounded=0;whiteSpace=wrap;html=1;fillColor=none;strokeWidth=2;" parent="1" vertex="1">
          <mxGeometry x="2190" y="60" width="230" height="490" as="geometry" />
        </mxCell>
        <mxCell id="vyCPet9ZvcBCag2oU1Ab-75" value="" style="endArrow=none;html=1;rounded=0;fontSize=12;startSize=8;endSize=8;" parent="1" edge="1">
          <mxGeometry width="50" height="50" relative="1" as="geometry">
            <mxPoint x="80" y="1040" as="sourcePoint" />
            <mxPoint x="440" y="1040" as="targetPoint" />
          </mxGeometry>
        </mxCell>
        <mxCell id="vyCPet9ZvcBCag2oU1Ab-85" style="edgeStyle=none;curved=1;rounded=0;orthogonalLoop=1;jettySize=auto;html=1;exitX=0.5;exitY=1;exitDx=0;exitDy=0;fontSize=12;startSize=8;endSize=8;" parent="1" source="vyCPet9ZvcBCag2oU1Ab-77" edge="1">
          <mxGeometry relative="1" as="geometry">
            <mxPoint x="144.56521739130437" y="1190" as="targetPoint" />
          </mxGeometry>
        </mxCell>
        <mxCell id="vyCPet9ZvcBCag2oU1Ab-77" value="monitoriza ritmo cardiaco" style="rounded=1;whiteSpace=wrap;html=1;" parent="1" vertex="1">
          <mxGeometry x="90" y="1090" width="110" height="50" as="geometry" />
        </mxCell>
        <mxCell id="vyCPet9ZvcBCag2oU1Ab-86" style="edgeStyle=none;curved=1;rounded=0;orthogonalLoop=1;jettySize=auto;html=1;exitX=0.5;exitY=1;exitDx=0;exitDy=0;fontSize=12;startSize=8;endSize=8;" parent="1" source="vyCPet9ZvcBCag2oU1Ab-78" edge="1">
          <mxGeometry relative="1" as="geometry">
            <mxPoint x="265.43478260869574" y="1190" as="targetPoint" />
          </mxGeometry>
        </mxCell>
        <mxCell id="vyCPet9ZvcBCag2oU1Ab-78" value="monitoriza sudoraciÃ³n" style="rounded=1;whiteSpace=wrap;html=1;" parent="1" vertex="1">
          <mxGeometry x="210" y="1090" width="110" height="50" as="geometry" />
        </mxCell>
        <mxCell id="vyCPet9ZvcBCag2oU1Ab-87" style="edgeStyle=none;curved=1;rounded=0;orthogonalLoop=1;jettySize=auto;html=1;exitX=0.5;exitY=1;exitDx=0;exitDy=0;fontSize=12;startSize=8;endSize=8;" parent="1" source="vyCPet9ZvcBCag2oU1Ab-79" edge="1">
          <mxGeometry relative="1" as="geometry">
            <mxPoint x="385.43478260869574" y="1190" as="targetPoint" />
          </mxGeometry>
        </mxCell>
        <mxCell id="vyCPet9ZvcBCag2oU1Ab-79" value="monitoriza respiraciÃ³n" style="rounded=1;whiteSpace=wrap;html=1;" parent="1" vertex="1">
          <mxGeometry x="330" y="1090" width="110" height="50" as="geometry" />
        </mxCell>
        <mxCell id="vyCPet9ZvcBCag2oU1Ab-80" value="" style="endArrow=classic;html=1;rounded=0;fontSize=12;startSize=8;endSize=8;" parent="1" target="vyCPet9ZvcBCag2oU1Ab-78" edge="1">
          <mxGeometry width="50" height="50" relative="1" as="geometry">
            <mxPoint x="265" y="1040" as="sourcePoint" />
            <mxPoint x="290" y="1130" as="targetPoint" />
          </mxGeometry>
        </mxCell>
        <mxCell id="vyCPet9ZvcBCag2oU1Ab-82" value="" style="endArrow=classic;html=1;rounded=0;fontSize=12;startSize=8;endSize=8;" parent="1" edge="1">
          <mxGeometry width="50" height="50" relative="1" as="geometry">
            <mxPoint x="147" y="1040" as="sourcePoint" />
            <mxPoint x="146.5" y="1090" as="targetPoint" />
          </mxGeometry>
        </mxCell>
        <mxCell id="vyCPet9ZvcBCag2oU1Ab-83" value="" style="endArrow=classic;html=1;rounded=0;fontSize=12;startSize=8;endSize=8;" parent="1" edge="1">
          <mxGeometry width="50" height="50" relative="1" as="geometry">
            <mxPoint x="387" y="1040" as="sourcePoint" />
            <mxPoint x="386.5" y="1090" as="targetPoint" />
          </mxGeometry>
        </mxCell>
        <mxCell id="vyCPet9ZvcBCag2oU1Ab-84" value="" style="endArrow=none;html=1;rounded=0;fontSize=12;startSize=8;endSize=8;" parent="1" edge="1">
          <mxGeometry width="50" height="50" relative="1" as="geometry">
            <mxPoint x="80" y="1190" as="sourcePoint" />
            <mxPoint x="440" y="1190" as="targetPoint" />
          </mxGeometry>
        </mxCell>
        <mxCell id="vyCPet9ZvcBCag2oU1Ab-92" style="edgeStyle=none;curved=1;rounded=0;orthogonalLoop=1;jettySize=auto;html=1;exitX=0.5;exitY=1;exitDx=0;exitDy=0;entryX=0.5;entryY=0;entryDx=0;entryDy=0;fontSize=12;startSize=8;endSize=8;" parent="1" source="vyCPet9ZvcBCag2oU1Ab-89" target="vyCPet9ZvcBCag2oU1Ab-91" edge="1">
          <mxGeometry relative="1" as="geometry" />
        </mxCell>
        <mxCell id="vyCPet9ZvcBCag2oU1Ab-89" value="Pasamos al estado (listo)" style="rounded=1;whiteSpace=wrap;html=1;" parent="1" vertex="1">
          <mxGeometry x="210" y="1240" width="110" height="50" as="geometry" />
        </mxCell>
        <mxCell id="vyCPet9ZvcBCag2oU1Ab-90" value="" style="endArrow=classic;html=1;rounded=0;fontSize=12;startSize=8;endSize=8;" parent="1" edge="1">
          <mxGeometry width="50" height="50" relative="1" as="geometry">
            <mxPoint x="267" y="1190" as="sourcePoint" />
            <mxPoint x="266.5" y="1240" as="targetPoint" />
          </mxGeometry>
        </mxCell>
        <mxCell id="vyCPet9ZvcBCag2oU1Ab-94" style="edgeStyle=none;curved=1;rounded=0;orthogonalLoop=1;jettySize=auto;html=1;exitX=0.5;exitY=1;exitDx=0;exitDy=0;entryX=0.5;entryY=0;entryDx=0;entryDy=0;fontSize=12;startSize=8;endSize=8;" parent="1" source="vyCPet9ZvcBCag2oU1Ab-91" target="vyCPet9ZvcBCag2oU1Ab-93" edge="1">
          <mxGeometry relative="1" as="geometry" />
        </mxCell>
        <mxCell id="vyCPet9ZvcBCag2oU1Ab-91" value="se hace la pregunta" style="rounded=1;whiteSpace=wrap;html=1;" parent="1" vertex="1">
          <mxGeometry x="210" y="1320" width="110" height="50" as="geometry" />
        </mxCell>
        <mxCell id="vyCPet9ZvcBCag2oU1Ab-99" style="edgeStyle=none;curved=0;rounded=0;orthogonalLoop=1;jettySize=auto;html=1;exitX=0;exitY=0.5;exitDx=0;exitDy=0;entryX=0.5;entryY=0;entryDx=0;entryDy=0;fontSize=12;startSize=8;endSize=8;" parent="1" source="vyCPet9ZvcBCag2oU1Ab-93" edge="1">
          <mxGeometry relative="1" as="geometry">
            <mxPoint x="159.9999999999999" y="1460.0000000000002" as="targetPoint" />
            <Array as="points">
              <mxPoint x="160" y="1418" />
            </Array>
          </mxGeometry>
        </mxCell>
        <mxCell id="vyCPet9ZvcBCag2oU1Ab-100" style="edgeStyle=none;curved=0;rounded=0;orthogonalLoop=1;jettySize=auto;html=1;exitX=1;exitY=0.5;exitDx=0;exitDy=0;entryX=0.5;entryY=0;entryDx=0;entryDy=0;fontSize=12;startSize=8;endSize=8;" parent="1" source="vyCPet9ZvcBCag2oU1Ab-93" target="vyCPet9ZvcBCag2oU1Ab-96" edge="1">
          <mxGeometry relative="1" as="geometry">
            <Array as="points">
              <mxPoint x="470" y="1420" />
            </Array>
          </mxGeometry>
        </mxCell>
        <mxCell id="vyCPet9ZvcBCag2oU1Ab-93" value="" style="rhombus;whiteSpace=wrap;html=1;" parent="1" vertex="1">
          <mxGeometry x="245" y="1400" width="40" height="35" as="geometry" />
        </mxCell>
        <mxCell id="vyCPet9ZvcBCag2oU1Ab-142" style="edgeStyle=none;curved=1;rounded=0;orthogonalLoop=1;jettySize=auto;html=1;exitX=0.5;exitY=1;exitDx=0;exitDy=0;entryX=0.5;entryY=0;entryDx=0;entryDy=0;fontSize=12;startSize=8;endSize=8;" parent="1" source="vyCPet9ZvcBCag2oU1Ab-96" target="vyCPet9ZvcBCag2oU1Ab-141" edge="1">
          <mxGeometry relative="1" as="geometry" />
        </mxCell>
        <mxCell id="vyCPet9ZvcBCag2oU1Ab-96" value="no miente" style="rounded=1;whiteSpace=wrap;html=1;" parent="1" vertex="1">
          <mxGeometry x="414" y="1704" width="110" height="50" as="geometry" />
        </mxCell>
        <mxCell id="vyCPet9ZvcBCag2oU1Ab-101" value="&lt;p style=&quot;line-height: 60%;&quot;&gt;&lt;font size=&quot;1&quot;&gt;acelera ritmo cardiaco&lt;/font&gt;&lt;/p&gt;" style="text;html=1;align=center;verticalAlign=middle;whiteSpace=wrap;rounded=0;fontSize=16;" parent="1" vertex="1">
          <mxGeometry x="180" y="1380" width="60" height="30" as="geometry" />
        </mxCell>
        <mxCell id="vyCPet9ZvcBCag2oU1Ab-102" value="&lt;p style=&quot;line-height: 60%;&quot;&gt;&lt;font size=&quot;1&quot;&gt;no acelera ritmo cardiaco&lt;/font&gt;&lt;/p&gt;" style="text;html=1;align=center;verticalAlign=middle;whiteSpace=wrap;rounded=0;fontSize=16;" parent="1" vertex="1">
          <mxGeometry x="305" y="1380" width="60" height="30" as="geometry" />
        </mxCell>
        <mxCell id="vyCPet9ZvcBCag2oU1Ab-108" style="edgeStyle=none;curved=1;rounded=0;orthogonalLoop=1;jettySize=auto;html=1;exitX=0.5;exitY=1;exitDx=0;exitDy=0;fontSize=12;startSize=8;endSize=8;" parent="1" source="vyCPet9ZvcBCag2oU1Ab-103" edge="1">
          <mxGeometry relative="1" as="geometry">
            <mxPoint x="160" y="1560" as="targetPoint" />
          </mxGeometry>
        </mxCell>
        <mxCell id="vyCPet9ZvcBCag2oU1Ab-103" value="monitoriza sudoraciÃ³n" style="rounded=1;whiteSpace=wrap;html=1;" parent="1" vertex="1">
          <mxGeometry x="105" y="1460" width="110" height="50" as="geometry" />
        </mxCell>
        <mxCell id="vyCPet9ZvcBCag2oU1Ab-109" style="edgeStyle=none;curved=0;rounded=0;orthogonalLoop=1;jettySize=auto;html=1;exitX=1;exitY=0.5;exitDx=0;exitDy=0;entryX=0;entryY=0.5;entryDx=0;entryDy=0;fontSize=12;startSize=8;endSize=8;" parent="1" source="vyCPet9ZvcBCag2oU1Ab-104" target="vyCPet9ZvcBCag2oU1Ab-96" edge="1">
          <mxGeometry relative="1" as="geometry">
            <Array as="points">
              <mxPoint x="330" y="1578" />
              <mxPoint x="330" y="1730" />
            </Array>
          </mxGeometry>
        </mxCell>
        <mxCell id="vyCPet9ZvcBCag2oU1Ab-111" style="edgeStyle=none;curved=1;rounded=0;orthogonalLoop=1;jettySize=auto;html=1;exitX=0.5;exitY=1;exitDx=0;exitDy=0;entryX=0.5;entryY=0;entryDx=0;entryDy=0;fontSize=12;startSize=8;endSize=8;" parent="1" source="vyCPet9ZvcBCag2oU1Ab-104" target="vyCPet9ZvcBCag2oU1Ab-110" edge="1">
          <mxGeometry relative="1" as="geometry" />
        </mxCell>
        <mxCell id="vyCPet9ZvcBCag2oU1Ab-104" value="" style="rhombus;whiteSpace=wrap;html=1;" parent="1" vertex="1">
          <mxGeometry x="140" y="1560" width="40" height="35" as="geometry" />
        </mxCell>
        <mxCell id="vyCPet9ZvcBCag2oU1Ab-105" value="&lt;p style=&quot;line-height: 60%;&quot;&gt;&lt;font size=&quot;1&quot;&gt;aumenta la sudoracion&lt;/font&gt;&lt;/p&gt;" style="text;html=1;align=center;verticalAlign=middle;whiteSpace=wrap;rounded=0;fontSize=16;" parent="1" vertex="1">
          <mxGeometry x="80" y="1530" width="60" height="30" as="geometry" />
        </mxCell>
        <mxCell id="vyCPet9ZvcBCag2oU1Ab-106" value="&lt;p style=&quot;line-height: 90%; font-size: 10px;&quot;&gt;no aumenta la sudoracion&lt;br&gt;&lt;/p&gt;" style="text;html=1;align=center;verticalAlign=middle;whiteSpace=wrap;rounded=0;fontSize=16;" parent="1" vertex="1">
          <mxGeometry x="190" y="1530" width="65" height="30" as="geometry" />
        </mxCell>
        <mxCell id="vyCPet9ZvcBCag2oU1Ab-116" style="edgeStyle=none;curved=1;rounded=0;orthogonalLoop=1;jettySize=auto;html=1;exitX=0.5;exitY=1;exitDx=0;exitDy=0;entryX=0.5;entryY=0;entryDx=0;entryDy=0;fontSize=12;startSize=8;endSize=8;" parent="1" source="vyCPet9ZvcBCag2oU1Ab-110" target="vyCPet9ZvcBCag2oU1Ab-112" edge="1">
          <mxGeometry relative="1" as="geometry" />
        </mxCell>
        <mxCell id="vyCPet9ZvcBCag2oU1Ab-110" value="la pregunta puede ser embarazosa o la respuesta mentira" style="rounded=1;whiteSpace=wrap;html=1;" parent="1" vertex="1">
          <mxGeometry x="102.5" y="1620" width="115" height="50" as="geometry" />
        </mxCell>
        <mxCell id="vyCPet9ZvcBCag2oU1Ab-117" style="edgeStyle=none;curved=1;rounded=0;orthogonalLoop=1;jettySize=auto;html=1;exitX=0.5;exitY=1;exitDx=0;exitDy=0;entryX=0.5;entryY=0;entryDx=0;entryDy=0;fontSize=12;startSize=8;endSize=8;" parent="1" source="vyCPet9ZvcBCag2oU1Ab-112" target="vyCPet9ZvcBCag2oU1Ab-113" edge="1">
          <mxGeometry relative="1" as="geometry" />
        </mxCell>
        <mxCell id="vyCPet9ZvcBCag2oU1Ab-112" value="esperar 3 segundos" style="rounded=1;whiteSpace=wrap;html=1;" parent="1" vertex="1">
          <mxGeometry x="102.5" y="1690" width="115" height="50" as="geometry" />
        </mxCell>
        <mxCell id="vyCPet9ZvcBCag2oU1Ab-118" style="edgeStyle=none;curved=1;rounded=0;orthogonalLoop=1;jettySize=auto;html=1;exitX=0.5;exitY=1;exitDx=0;exitDy=0;entryX=0.5;entryY=0;entryDx=0;entryDy=0;fontSize=12;startSize=8;endSize=8;" parent="1" source="vyCPet9ZvcBCag2oU1Ab-113" target="vyCPet9ZvcBCag2oU1Ab-115" edge="1">
          <mxGeometry relative="1" as="geometry" />
        </mxCell>
        <mxCell id="vyCPet9ZvcBCag2oU1Ab-113" value="se repite pregunta" style="rounded=1;whiteSpace=wrap;html=1;" parent="1" vertex="1">
          <mxGeometry x="102.5" y="1760" width="115" height="50" as="geometry" />
        </mxCell>
        <mxCell id="vyCPet9ZvcBCag2oU1Ab-120" style="edgeStyle=none;curved=1;rounded=0;orthogonalLoop=1;jettySize=auto;html=1;exitX=1;exitY=0.5;exitDx=0;exitDy=0;entryX=0;entryY=1;entryDx=0;entryDy=0;fontSize=12;startSize=8;endSize=8;" parent="1" source="vyCPet9ZvcBCag2oU1Ab-115" target="vyCPet9ZvcBCag2oU1Ab-96" edge="1">
          <mxGeometry relative="1" as="geometry">
            <Array as="points">
              <mxPoint x="340" y="1840" />
            </Array>
          </mxGeometry>
        </mxCell>
        <mxCell id="vyCPet9ZvcBCag2oU1Ab-124" style="edgeStyle=none;curved=1;rounded=0;orthogonalLoop=1;jettySize=auto;html=1;exitX=0.5;exitY=1;exitDx=0;exitDy=0;entryX=0.5;entryY=0;entryDx=0;entryDy=0;fontSize=12;startSize=8;endSize=8;" parent="1" source="vyCPet9ZvcBCag2oU1Ab-115" target="vyCPet9ZvcBCag2oU1Ab-123" edge="1">
          <mxGeometry relative="1" as="geometry" />
        </mxCell>
        <mxCell id="vyCPet9ZvcBCag2oU1Ab-115" value="" style="rhombus;whiteSpace=wrap;html=1;" parent="1" vertex="1">
          <mxGeometry x="140" y="1840" width="40" height="35" as="geometry" />
        </mxCell>
        <mxCell id="vyCPet9ZvcBCag2oU1Ab-121" value="&lt;p style=&quot;line-height: 60%;&quot;&gt;&lt;font size=&quot;1&quot;&gt;no varia la respiracion&lt;/font&gt;&lt;/p&gt;" style="text;html=1;align=center;verticalAlign=middle;whiteSpace=wrap;rounded=0;fontSize=16;" parent="1" vertex="1">
          <mxGeometry x="180" y="1820" width="60" height="30" as="geometry" />
        </mxCell>
        <mxCell id="vyCPet9ZvcBCag2oU1Ab-122" value="&lt;p style=&quot;line-height: 90%; font-size: 10px;&quot;&gt;varia la respiraciÃ³n&lt;/p&gt;" style="text;html=1;align=center;verticalAlign=middle;whiteSpace=wrap;rounded=0;fontSize=16;" parent="1" vertex="1">
          <mxGeometry x="90" y="1880" width="65" height="30" as="geometry" />
        </mxCell>
        <mxCell id="vyCPet9ZvcBCag2oU1Ab-126" style="edgeStyle=none;curved=1;rounded=0;orthogonalLoop=1;jettySize=auto;html=1;exitX=0.5;exitY=1;exitDx=0;exitDy=0;entryX=0.5;entryY=0;entryDx=0;entryDy=0;fontSize=12;startSize=8;endSize=8;" parent="1" source="vyCPet9ZvcBCag2oU1Ab-123" target="vyCPet9ZvcBCag2oU1Ab-125" edge="1">
          <mxGeometry relative="1" as="geometry" />
        </mxCell>
        <mxCell id="vyCPet9ZvcBCag2oU1Ab-123" value="sujeto miente" style="rounded=1;whiteSpace=wrap;html=1;" parent="1" vertex="1">
          <mxGeometry x="105" y="1910" width="115" height="50" as="geometry" />
        </mxCell>
        <mxCell id="vyCPet9ZvcBCag2oU1Ab-130" style="edgeStyle=none;curved=1;rounded=0;orthogonalLoop=1;jettySize=auto;html=1;exitX=0.5;exitY=1;exitDx=0;exitDy=0;fontSize=12;startSize=8;endSize=8;" parent="1" source="vyCPet9ZvcBCag2oU1Ab-125" edge="1">
          <mxGeometry relative="1" as="geometry">
            <mxPoint x="162.82608695652186" y="2060" as="targetPoint" />
          </mxGeometry>
        </mxCell>
        <mxCell id="vyCPet9ZvcBCag2oU1Ab-125" value="esperar 5 segundos" style="rounded=1;whiteSpace=wrap;html=1;" parent="1" vertex="1">
          <mxGeometry x="105" y="1980" width="115" height="50" as="geometry" />
        </mxCell>
        <mxCell id="vyCPet9ZvcBCag2oU1Ab-134" style="edgeStyle=none;curved=1;rounded=0;orthogonalLoop=1;jettySize=auto;html=1;exitX=0.5;exitY=1;exitDx=0;exitDy=0;fontSize=12;startSize=8;endSize=8;" parent="1" source="vyCPet9ZvcBCag2oU1Ab-127" edge="1">
          <mxGeometry relative="1" as="geometry">
            <mxPoint x="82.82608695652175" y="2170" as="targetPoint" />
          </mxGeometry>
        </mxCell>
        <mxCell id="vyCPet9ZvcBCag2oU1Ab-127" value="sujeto recupera sudoraciÃ³n" style="rounded=1;whiteSpace=wrap;html=1;" parent="1" vertex="1">
          <mxGeometry x="25" y="2090" width="115" height="50" as="geometry" />
        </mxCell>
        <mxCell id="vyCPet9ZvcBCag2oU1Ab-135" style="edgeStyle=none;curved=1;rounded=0;orthogonalLoop=1;jettySize=auto;html=1;exitX=0.5;exitY=1;exitDx=0;exitDy=0;fontSize=12;startSize=8;endSize=8;" parent="1" source="vyCPet9ZvcBCag2oU1Ab-128" edge="1">
          <mxGeometry relative="1" as="geometry">
            <mxPoint x="237.608695652174" y="2170" as="targetPoint" />
          </mxGeometry>
        </mxCell>
        <mxCell id="vyCPet9ZvcBCag2oU1Ab-128" value="sujeto recupera ritmo cardiaco" style="rounded=1;whiteSpace=wrap;html=1;" parent="1" vertex="1">
          <mxGeometry x="180" y="2090" width="115" height="50" as="geometry" />
        </mxCell>
        <mxCell id="vyCPet9ZvcBCag2oU1Ab-129" value="" style="endArrow=none;html=1;rounded=0;fontSize=12;startSize=8;endSize=8;" parent="1" edge="1">
          <mxGeometry width="50" height="50" relative="1" as="geometry">
            <mxPoint x="40" y="2060" as="sourcePoint" />
            <mxPoint x="280" y="2060" as="targetPoint" />
          </mxGeometry>
        </mxCell>
        <mxCell id="vyCPet9ZvcBCag2oU1Ab-131" style="edgeStyle=none;curved=1;rounded=0;orthogonalLoop=1;jettySize=auto;html=1;exitX=0.5;exitY=1;exitDx=0;exitDy=0;fontSize=12;startSize=8;endSize=8;" parent="1" edge="1">
          <mxGeometry relative="1" as="geometry">
            <mxPoint x="239.99608695652188" y="2090" as="targetPoint" />
            <mxPoint x="240.17000000000002" y="2060" as="sourcePoint" />
          </mxGeometry>
        </mxCell>
        <mxCell id="vyCPet9ZvcBCag2oU1Ab-132" style="edgeStyle=none;curved=1;rounded=0;orthogonalLoop=1;jettySize=auto;html=1;exitX=0.5;exitY=1;exitDx=0;exitDy=0;fontSize=12;startSize=8;endSize=8;" parent="1" edge="1">
          <mxGeometry relative="1" as="geometry">
            <mxPoint x="79.99608695652186" y="2090" as="targetPoint" />
            <mxPoint x="80.17" y="2060" as="sourcePoint" />
          </mxGeometry>
        </mxCell>
        <mxCell id="vyCPet9ZvcBCag2oU1Ab-133" value="" style="endArrow=none;html=1;rounded=0;fontSize=12;startSize=8;endSize=8;" parent="1" edge="1">
          <mxGeometry width="50" height="50" relative="1" as="geometry">
            <mxPoint x="40" y="2170" as="sourcePoint" />
            <mxPoint x="280" y="2170" as="targetPoint" />
          </mxGeometry>
        </mxCell>
        <mxCell id="vyCPet9ZvcBCag2oU1Ab-140" style="edgeStyle=none;curved=1;rounded=0;orthogonalLoop=1;jettySize=auto;html=1;exitX=0.5;exitY=1;exitDx=0;exitDy=0;entryX=0.5;entryY=0;entryDx=0;entryDy=0;fontSize=12;startSize=8;endSize=8;" parent="1" source="vyCPet9ZvcBCag2oU1Ab-136" target="vyCPet9ZvcBCag2oU1Ab-139" edge="1">
          <mxGeometry relative="1" as="geometry" />
        </mxCell>
        <mxCell id="vyCPet9ZvcBCag2oU1Ab-136" value="estado finalizado" style="rounded=1;whiteSpace=wrap;html=1;" parent="1" vertex="1">
          <mxGeometry x="105" y="2200" width="115" height="50" as="geometry" />
        </mxCell>
        <mxCell id="vyCPet9ZvcBCag2oU1Ab-137" style="edgeStyle=none;curved=1;rounded=0;orthogonalLoop=1;jettySize=auto;html=1;exitX=0.5;exitY=1;exitDx=0;exitDy=0;fontSize=12;startSize=8;endSize=8;" parent="1" edge="1">
          <mxGeometry relative="1" as="geometry">
            <mxPoint x="159.56608695652187" y="2200" as="targetPoint" />
            <mxPoint x="159.74" y="2170" as="sourcePoint" />
          </mxGeometry>
        </mxCell>
        <mxCell id="vyCPet9ZvcBCag2oU1Ab-144" style="edgeStyle=none;curved=1;rounded=0;orthogonalLoop=1;jettySize=auto;html=1;exitX=0.5;exitY=1;exitDx=0;exitDy=0;entryX=0.5;entryY=0;entryDx=0;entryDy=0;fontSize=12;startSize=8;endSize=8;" parent="1" source="vyCPet9ZvcBCag2oU1Ab-139" target="vyCPet9ZvcBCag2oU1Ab-143" edge="1">
          <mxGeometry relative="1" as="geometry" />
        </mxCell>
        <mxCell id="vyCPet9ZvcBCag2oU1Ab-139" value="mostrar datos" style="rounded=1;whiteSpace=wrap;html=1;" parent="1" vertex="1">
          <mxGeometry x="105" y="2270" width="115" height="50" as="geometry" />
        </mxCell>
        <mxCell id="vyCPet9ZvcBCag2oU1Ab-141" value="" style="ellipse;html=1;shape=endState;fillColor=#000000;strokeColor=#050000;" parent="1" vertex="1">
          <mxGeometry x="454" y="1790" width="30" height="30" as="geometry" />
        </mxCell>
        <mxCell id="vyCPet9ZvcBCag2oU1Ab-143" value="" style="ellipse;html=1;shape=endState;fillColor=#000000;strokeColor=#050000;" parent="1" vertex="1">
          <mxGeometry x="147.5" y="2338" width="30" height="30" as="geometry" />
        </mxCell>
        <mxCell id="vyCPet9ZvcBCag2oU1Ab-145" value="6" style="rounded=0;whiteSpace=wrap;html=1;" parent="1" vertex="1">
          <mxGeometry x="605" y="970" width="30" height="30" as="geometry" />
        </mxCell>
        <mxCell id="vyCPet9ZvcBCag2oU1Ab-147" value="" style="html=1;verticalAlign=bottom;startArrow=circle;startFill=1;endArrow=open;startSize=6;endSize=8;curved=0;rounded=0;entryX=0.5;entryY=0;entryDx=0;entryDy=0;" parent="1" target="vyCPet9ZvcBCag2oU1Ab-148" edge="1">
          <mxGeometry width="80" relative="1" as="geometry">
            <mxPoint x="759.5699999999999" y="1070" as="sourcePoint" />
            <mxPoint x="759.5699999999999" y="1130" as="targetPoint" />
          </mxGeometry>
        </mxCell>
        <mxCell id="vyCPet9ZvcBCag2oU1Ab-153" style="edgeStyle=none;curved=1;rounded=0;orthogonalLoop=1;jettySize=auto;html=1;exitX=0.5;exitY=1;exitDx=0;exitDy=0;fontSize=12;startSize=8;endSize=8;" parent="1" source="vyCPet9ZvcBCag2oU1Ab-148" edge="1">
          <mxGeometry relative="1" as="geometry">
            <mxPoint x="760.217391304348" y="1210" as="targetPoint" />
          </mxGeometry>
        </mxCell>
        <mxCell id="vyCPet9ZvcBCag2oU1Ab-148" value="Selecciona comprar producto" style="rounded=1;whiteSpace=wrap;html=1;" parent="1" vertex="1">
          <mxGeometry x="700" y="1130" width="120" height="50" as="geometry" />
        </mxCell>
        <mxCell id="vyCPet9ZvcBCag2oU1Ab-150" value="CLIENTE" style="rounded=0;whiteSpace=wrap;html=1;" parent="1" vertex="1">
          <mxGeometry x="600" y="1010" width="400" height="40" as="geometry" />
        </mxCell>
        <mxCell id="vyCPet9ZvcBCag2oU1Ab-151" value="SISTEMA" style="rounded=0;whiteSpace=wrap;html=1;" parent="1" vertex="1">
          <mxGeometry x="1000" y="1010" width="400" height="40" as="geometry" />
        </mxCell>
        <mxCell id="vyCPet9ZvcBCag2oU1Ab-152" value="" style="endArrow=none;html=1;rounded=0;fontSize=12;startSize=8;endSize=8;" parent="1" edge="1">
          <mxGeometry width="50" height="50" relative="1" as="geometry">
            <mxPoint x="650" y="1210" as="sourcePoint" />
            <mxPoint x="870" y="1210" as="targetPoint" />
          </mxGeometry>
        </mxCell>
        <mxCell id="vyCPet9ZvcBCag2oU1Ab-160" style="edgeStyle=none;curved=1;rounded=0;orthogonalLoop=1;jettySize=auto;html=1;exitX=0.5;exitY=1;exitDx=0;exitDy=0;fontSize=12;startSize=8;endSize=8;" parent="1" source="vyCPet9ZvcBCag2oU1Ab-154" edge="1">
          <mxGeometry relative="1" as="geometry">
            <mxPoint x="715.0000000000002" y="1300" as="targetPoint" />
          </mxGeometry>
        </mxCell>
        <mxCell id="vyCPet9ZvcBCag2oU1Ab-154" value="Selecciona producto" style="rounded=1;whiteSpace=wrap;html=1;" parent="1" vertex="1">
          <mxGeometry x="670" y="1230" width="90" height="40" as="geometry" />
        </mxCell>
        <mxCell id="vyCPet9ZvcBCag2oU1Ab-159" style="edgeStyle=none;curved=1;rounded=0;orthogonalLoop=1;jettySize=auto;html=1;exitX=0.5;exitY=1;exitDx=0;exitDy=0;fontSize=12;startSize=8;endSize=8;" parent="1" source="vyCPet9ZvcBCag2oU1Ab-155" edge="1">
          <mxGeometry relative="1" as="geometry">
            <mxPoint x="824.5652173913045" y="1300" as="targetPoint" />
          </mxGeometry>
        </mxCell>
        <mxCell id="vyCPet9ZvcBCag2oU1Ab-155" value="escribe cantidad" style="rounded=1;whiteSpace=wrap;html=1;" parent="1" vertex="1">
          <mxGeometry x="782.5" y="1230" width="85" height="40" as="geometry" />
        </mxCell>
        <mxCell id="vyCPet9ZvcBCag2oU1Ab-156" style="edgeStyle=none;curved=1;rounded=0;orthogonalLoop=1;jettySize=auto;html=1;fontSize=12;startSize=8;endSize=8;entryX=0.5;entryY=0;entryDx=0;entryDy=0;" parent="1" target="vyCPet9ZvcBCag2oU1Ab-155" edge="1">
          <mxGeometry relative="1" as="geometry">
            <mxPoint x="770.217391304348" y="1220" as="targetPoint" />
            <mxPoint x="820" y="1210" as="sourcePoint" />
          </mxGeometry>
        </mxCell>
        <mxCell id="vyCPet9ZvcBCag2oU1Ab-157" style="edgeStyle=none;curved=1;rounded=0;orthogonalLoop=1;jettySize=auto;html=1;fontSize=12;startSize=8;endSize=8;entryX=0.5;entryY=0;entryDx=0;entryDy=0;" parent="1" target="vyCPet9ZvcBCag2oU1Ab-154" edge="1">
          <mxGeometry relative="1" as="geometry">
            <mxPoint x="770.217391304348" y="1220" as="targetPoint" />
            <mxPoint x="720" y="1210" as="sourcePoint" />
          </mxGeometry>
        </mxCell>
        <mxCell id="vyCPet9ZvcBCag2oU1Ab-158" value="" style="endArrow=none;html=1;rounded=0;fontSize=12;startSize=8;endSize=8;" parent="1" edge="1">
          <mxGeometry width="50" height="50" relative="1" as="geometry">
            <mxPoint x="650" y="1300" as="sourcePoint" />
            <mxPoint x="870" y="1300" as="targetPoint" />
          </mxGeometry>
        </mxCell>
        <mxCell id="vyCPet9ZvcBCag2oU1Ab-165" style="edgeStyle=none;curved=1;rounded=0;orthogonalLoop=1;jettySize=auto;html=1;exitX=0.5;exitY=1;exitDx=0;exitDy=0;entryX=0.5;entryY=0;entryDx=0;entryDy=0;fontSize=12;startSize=8;endSize=8;" parent="1" source="vyCPet9ZvcBCag2oU1Ab-161" target="vyCPet9ZvcBCag2oU1Ab-164" edge="1">
          <mxGeometry relative="1" as="geometry" />
        </mxCell>
        <mxCell id="vyCPet9ZvcBCag2oU1Ab-161" value="comprobar si hay existencias" style="rounded=1;whiteSpace=wrap;html=1;" parent="1" vertex="1">
          <mxGeometry x="1115" y="1100" width="120" height="50" as="geometry" />
        </mxCell>
        <mxCell id="vyCPet9ZvcBCag2oU1Ab-162" value="" style="endArrow=classic;html=1;rounded=0;fontSize=12;startSize=8;endSize=8;entryX=0.5;entryY=0;entryDx=0;entryDy=0;" parent="1" target="vyCPet9ZvcBCag2oU1Ab-161" edge="1">
          <mxGeometry width="50" height="50" relative="1" as="geometry">
            <mxPoint x="760" y="1300" as="sourcePoint" />
            <mxPoint x="950" y="1220" as="targetPoint" />
            <Array as="points">
              <mxPoint x="760" y="1350" />
              <mxPoint x="960" y="1350" />
              <mxPoint x="960" y="1080" />
              <mxPoint x="1175" y="1080" />
            </Array>
          </mxGeometry>
        </mxCell>
        <mxCell id="vyCPet9ZvcBCag2oU1Ab-170" style="edgeStyle=none;curved=0;rounded=0;orthogonalLoop=1;jettySize=auto;html=1;exitX=0;exitY=0.5;exitDx=0;exitDy=0;entryX=0.5;entryY=0;entryDx=0;entryDy=0;fontSize=12;startSize=8;endSize=8;" parent="1" source="vyCPet9ZvcBCag2oU1Ab-164" target="vyCPet9ZvcBCag2oU1Ab-167" edge="1">
          <mxGeometry relative="1" as="geometry">
            <Array as="points">
              <mxPoint x="1113" y="1198" />
            </Array>
          </mxGeometry>
        </mxCell>
        <mxCell id="vyCPet9ZvcBCag2oU1Ab-171" style="edgeStyle=none;curved=0;rounded=0;orthogonalLoop=1;jettySize=auto;html=1;exitX=1;exitY=0.5;exitDx=0;exitDy=0;entryX=0.5;entryY=0;entryDx=0;entryDy=0;fontSize=12;startSize=8;endSize=8;" parent="1" source="vyCPet9ZvcBCag2oU1Ab-164" target="vyCPet9ZvcBCag2oU1Ab-166" edge="1">
          <mxGeometry relative="1" as="geometry">
            <Array as="points">
              <mxPoint x="1300" y="1198" />
            </Array>
          </mxGeometry>
        </mxCell>
        <mxCell id="vyCPet9ZvcBCag2oU1Ab-164" value="" style="rhombus;whiteSpace=wrap;html=1;" parent="1" vertex="1">
          <mxGeometry x="1155" y="1180" width="40" height="35" as="geometry" />
        </mxCell>
        <mxCell id="vyCPet9ZvcBCag2oU1Ab-166" value="Mostar que no quedan" style="rounded=1;whiteSpace=wrap;html=1;" parent="1" vertex="1">
          <mxGeometry x="1259" y="1220" width="85" height="40" as="geometry" />
        </mxCell>
        <mxCell id="vyCPet9ZvcBCag2oU1Ab-169" style="edgeStyle=none;curved=1;rounded=0;orthogonalLoop=1;jettySize=auto;html=1;exitX=0.5;exitY=1;exitDx=0;exitDy=0;entryX=0.5;entryY=0;entryDx=0;entryDy=0;fontSize=12;startSize=8;endSize=8;" parent="1" source="vyCPet9ZvcBCag2oU1Ab-167" target="vyCPet9ZvcBCag2oU1Ab-168" edge="1">
          <mxGeometry relative="1" as="geometry" />
        </mxCell>
        <mxCell id="vyCPet9ZvcBCag2oU1Ab-167" value="AÃ±adir productos a la cesta" style="rounded=1;whiteSpace=wrap;html=1;" parent="1" vertex="1">
          <mxGeometry x="1070" y="1230" width="85" height="40" as="geometry" />
        </mxCell>
        <mxCell id="vyCPet9ZvcBCag2oU1Ab-176" style="edgeStyle=none;curved=0;rounded=0;orthogonalLoop=1;jettySize=auto;html=1;exitX=0.5;exitY=1;exitDx=0;exitDy=0;entryX=0.5;entryY=0;entryDx=0;entryDy=0;fontSize=12;startSize=8;endSize=8;" parent="1" source="vyCPet9ZvcBCag2oU1Ab-168" target="vyCPet9ZvcBCag2oU1Ab-173" edge="1">
          <mxGeometry relative="1" as="geometry">
            <Array as="points">
              <mxPoint x="1113" y="1360" />
              <mxPoint x="760" y="1360" />
            </Array>
          </mxGeometry>
        </mxCell>
        <mxCell id="vyCPet9ZvcBCag2oU1Ab-168" value="mostrar nombre y precio" style="rounded=1;whiteSpace=wrap;html=1;" parent="1" vertex="1">
          <mxGeometry x="1070" y="1300" width="85" height="40" as="geometry" />
        </mxCell>
        <mxCell id="vyCPet9ZvcBCag2oU1Ab-172" value="sigue seleccionando articulos" style="rounded=1;whiteSpace=wrap;html=1;" parent="1" vertex="1">
          <mxGeometry x="665" y="1440" width="85" height="40" as="geometry" />
        </mxCell>
        <mxCell id="vyCPet9ZvcBCag2oU1Ab-177" style="edgeStyle=none;curved=0;rounded=0;orthogonalLoop=1;jettySize=auto;html=1;exitX=0;exitY=0.5;exitDx=0;exitDy=0;entryX=0.5;entryY=0;entryDx=0;entryDy=0;fontSize=12;startSize=8;endSize=8;" parent="1" source="vyCPet9ZvcBCag2oU1Ab-173" target="vyCPet9ZvcBCag2oU1Ab-172" edge="1">
          <mxGeometry relative="1" as="geometry">
            <Array as="points">
              <mxPoint x="708" y="1408" />
            </Array>
          </mxGeometry>
        </mxCell>
        <mxCell id="vyCPet9ZvcBCag2oU1Ab-179" style="edgeStyle=none;curved=0;rounded=0;orthogonalLoop=1;jettySize=auto;html=1;exitX=1;exitY=0.5;exitDx=0;exitDy=0;entryX=0.5;entryY=0;entryDx=0;entryDy=0;fontSize=12;startSize=8;endSize=8;" parent="1" source="vyCPet9ZvcBCag2oU1Ab-173" target="vyCPet9ZvcBCag2oU1Ab-178" edge="1">
          <mxGeometry relative="1" as="geometry">
            <Array as="points">
              <mxPoint x="1113" y="1410" />
            </Array>
          </mxGeometry>
        </mxCell>
        <mxCell id="vyCPet9ZvcBCag2oU1Ab-173" value="" style="rhombus;whiteSpace=wrap;html=1;" parent="1" vertex="1">
          <mxGeometry x="740" y="1390" width="40" height="35" as="geometry" />
        </mxCell>
        <mxCell id="vyCPet9ZvcBCag2oU1Ab-174" value="&lt;p style=&quot;line-height: 73%;&quot;&gt;&lt;font style=&quot;font-size: 12px;&quot;&gt;no quedan articulos&lt;/font&gt;&lt;/p&gt;" style="text;html=1;align=center;verticalAlign=middle;whiteSpace=wrap;rounded=0;fontSize=16;opacity=20;" parent="1" vertex="1">
          <mxGeometry x="1211" y="1160" width="60" height="30" as="geometry" />
        </mxCell>
        <mxCell id="vyCPet9ZvcBCag2oU1Ab-175" value="&lt;p style=&quot;line-height: 73%;&quot;&gt;&lt;font style=&quot;font-size: 12px;&quot;&gt;quedan articulos&lt;/font&gt;&lt;/p&gt;" style="text;html=1;align=center;verticalAlign=middle;whiteSpace=wrap;rounded=0;fontSize=16;opacity=20;" parent="1" vertex="1">
          <mxGeometry x="1082.5" y="1160" width="60" height="30" as="geometry" />
        </mxCell>
        <mxCell id="vyCPet9ZvcBCag2oU1Ab-181" style="edgeStyle=none;curved=1;rounded=0;orthogonalLoop=1;jettySize=auto;html=1;exitX=0.5;exitY=1;exitDx=0;exitDy=0;entryX=0.5;entryY=0;entryDx=0;entryDy=0;fontSize=12;startSize=8;endSize=8;" parent="1" source="vyCPet9ZvcBCag2oU1Ab-178" target="vyCPet9ZvcBCag2oU1Ab-180" edge="1">
          <mxGeometry relative="1" as="geometry" />
        </mxCell>
        <mxCell id="vyCPet9ZvcBCag2oU1Ab-178" value="calcular importe total" style="rounded=1;whiteSpace=wrap;html=1;" parent="1" vertex="1">
          <mxGeometry x="1070" y="1440" width="85" height="40" as="geometry" />
        </mxCell>
        <mxCell id="vyCPet9ZvcBCag2oU1Ab-185" style="edgeStyle=none;curved=0;rounded=0;orthogonalLoop=1;jettySize=auto;html=1;exitX=0.5;exitY=1;exitDx=0;exitDy=0;entryX=0.5;entryY=0;entryDx=0;entryDy=0;fontSize=12;startSize=8;endSize=8;" parent="1" source="vyCPet9ZvcBCag2oU1Ab-180" target="vyCPet9ZvcBCag2oU1Ab-184" edge="1">
          <mxGeometry relative="1" as="geometry">
            <Array as="points">
              <mxPoint x="1113" y="1560" />
              <mxPoint x="760" y="1560" />
            </Array>
          </mxGeometry>
        </mxCell>
        <mxCell id="vyCPet9ZvcBCag2oU1Ab-180" value="mostrar importe al cliente" style="rounded=1;whiteSpace=wrap;html=1;" parent="1" vertex="1">
          <mxGeometry x="1070" y="1500" width="85" height="40" as="geometry" />
        </mxCell>
        <mxCell id="vyCPet9ZvcBCag2oU1Ab-182" value="&lt;p style=&quot;line-height: 73%;&quot;&gt;&lt;span style=&quot;font-size: 12px;&quot;&gt;no seleciona nada&lt;/span&gt;&lt;/p&gt;" style="text;html=1;align=center;verticalAlign=middle;whiteSpace=wrap;rounded=0;fontSize=16;opacity=20;" parent="1" vertex="1">
          <mxGeometry x="685" y="1370" width="60" height="30" as="geometry" />
        </mxCell>
        <mxCell id="vyCPet9ZvcBCag2oU1Ab-183" value="&lt;p style=&quot;line-height: 73%;&quot;&gt;&lt;span style=&quot;font-size: 12px;&quot;&gt;el cliente selecciona finalizar compra&lt;/span&gt;&lt;/p&gt;" style="text;html=1;align=center;verticalAlign=middle;whiteSpace=wrap;rounded=0;fontSize=16;opacity=20;" parent="1" vertex="1">
          <mxGeometry x="782.5" y="1410" width="125" height="30" as="geometry" />
        </mxCell>
        <mxCell id="vyCPet9ZvcBCag2oU1Ab-188" style="edgeStyle=none;curved=0;rounded=0;orthogonalLoop=1;jettySize=auto;html=1;exitX=1;exitY=0.5;exitDx=0;exitDy=0;fontSize=12;startSize=8;endSize=8;" parent="1" source="vyCPet9ZvcBCag2oU1Ab-184" edge="1">
          <mxGeometry relative="1" as="geometry">
            <Array as="points">
              <mxPoint x="1200" y="1600" />
            </Array>
            <mxPoint x="1200" y="1680" as="targetPoint" />
          </mxGeometry>
        </mxCell>
        <mxCell id="vyCPet9ZvcBCag2oU1Ab-189" style="edgeStyle=none;curved=0;rounded=0;orthogonalLoop=1;jettySize=auto;html=1;exitX=0;exitY=0.5;exitDx=0;exitDy=0;fontSize=12;startSize=8;endSize=8;" parent="1" source="vyCPet9ZvcBCag2oU1Ab-184" edge="1">
          <mxGeometry relative="1" as="geometry">
            <mxPoint x="760" y="1360" as="targetPoint" />
            <Array as="points">
              <mxPoint x="640" y="1598" />
              <mxPoint x="640" y="1360" />
            </Array>
          </mxGeometry>
        </mxCell>
        <mxCell id="vyCPet9ZvcBCag2oU1Ab-184" value="" style="rhombus;whiteSpace=wrap;html=1;" parent="1" vertex="1">
          <mxGeometry x="740" y="1580" width="40" height="35" as="geometry" />
        </mxCell>
        <mxCell id="vyCPet9ZvcBCag2oU1Ab-190" value="&lt;p style=&quot;line-height: 73%;&quot;&gt;&lt;span style=&quot;font-size: 12px;&quot;&gt;el cliente selecciona Aceptar&lt;/span&gt;&lt;/p&gt;" style="text;html=1;align=center;verticalAlign=middle;whiteSpace=wrap;rounded=0;fontSize=16;opacity=20;" parent="1" vertex="1">
          <mxGeometry x="780" y="1565" width="125" height="30" as="geometry" />
        </mxCell>
        <mxCell id="vyCPet9ZvcBCag2oU1Ab-191" value="&lt;p style=&quot;line-height: 73%;&quot;&gt;&lt;span style=&quot;font-size: 12px;&quot;&gt;El cliente selecciona modificar cesta&lt;/span&gt;&lt;/p&gt;" style="text;html=1;align=center;verticalAlign=middle;whiteSpace=wrap;rounded=0;fontSize=16;opacity=20;" parent="1" vertex="1">
          <mxGeometry x="627.5" y="1565" width="125" height="30" as="geometry" />
        </mxCell>
        <mxCell id="TzW82JIdIIw8Vi3Knsoh-18" style="edgeStyle=orthogonalEdgeStyle;rounded=0;orthogonalLoop=1;jettySize=auto;html=1;exitX=0.5;exitY=1;exitDx=0;exitDy=0;entryX=0.5;entryY=0;entryDx=0;entryDy=0;" edge="1" parent="1" source="vyCPet9ZvcBCag2oU1Ab-193" target="TzW82JIdIIw8Vi3Knsoh-17">
          <mxGeometry relative="1" as="geometry">
            <Array as="points">
              <mxPoint x="760" y="1860" />
              <mxPoint x="760" y="1860" />
            </Array>
          </mxGeometry>
        </mxCell>
        <mxCell id="vyCPet9ZvcBCag2oU1Ab-193" value="elegir mÃ©todo de pago" style="rounded=1;whiteSpace=wrap;html=1;" parent="1" vertex="1">
          <mxGeometry x="717.5" y="1800" width="85" height="40" as="geometry" />
        </mxCell>
        <mxCell id="TzW82JIdIIw8Vi3Knsoh-12" style="edgeStyle=orthogonalEdgeStyle;rounded=0;orthogonalLoop=1;jettySize=auto;html=1;exitX=0.5;exitY=1;exitDx=0;exitDy=0;endArrow=none;endFill=0;" edge="1" parent="1" source="TzW82JIdIIw8Vi3Knsoh-2">
          <mxGeometry relative="1" as="geometry">
            <mxPoint x="1092.4761904761904" y="1779" as="targetPoint" />
          </mxGeometry>
        </mxCell>
        <mxCell id="TzW82JIdIIw8Vi3Knsoh-2" value="mostrar pago por tarjeta" style="rounded=1;whiteSpace=wrap;html=1;" vertex="1" parent="1">
          <mxGeometry x="1050" y="1713" width="85" height="40" as="geometry" />
        </mxCell>
        <mxCell id="TzW82JIdIIw8Vi3Knsoh-3" value="" style="endArrow=none;html=1;rounded=0;" edge="1" parent="1">
          <mxGeometry width="50" height="50" relative="1" as="geometry">
            <mxPoint x="1070" y="1679" as="sourcePoint" />
            <mxPoint x="1330" y="1679" as="targetPoint" />
          </mxGeometry>
        </mxCell>
        <mxCell id="TzW82JIdIIw8Vi3Knsoh-13" style="edgeStyle=orthogonalEdgeStyle;rounded=0;orthogonalLoop=1;jettySize=auto;html=1;exitX=0.5;exitY=1;exitDx=0;exitDy=0;endArrow=none;endFill=0;" edge="1" parent="1" source="TzW82JIdIIw8Vi3Knsoh-4">
          <mxGeometry relative="1" as="geometry">
            <mxPoint x="1307.7142857142858" y="1779" as="targetPoint" />
          </mxGeometry>
        </mxCell>
        <mxCell id="TzW82JIdIIw8Vi3Knsoh-4" value="mostrar pago en efectivo" style="rounded=1;whiteSpace=wrap;html=1;" vertex="1" parent="1">
          <mxGeometry x="1265" y="1713" width="85" height="40" as="geometry" />
        </mxCell>
        <mxCell id="TzW82JIdIIw8Vi3Knsoh-11" style="edgeStyle=orthogonalEdgeStyle;rounded=0;orthogonalLoop=1;jettySize=auto;html=1;exitX=0.5;exitY=1;exitDx=0;exitDy=0;endArrow=none;endFill=0;" edge="1" parent="1" source="TzW82JIdIIw8Vi3Knsoh-5">
          <mxGeometry relative="1" as="geometry">
            <mxPoint x="1200.095238095238" y="1779" as="targetPoint" />
          </mxGeometry>
        </mxCell>
        <mxCell id="TzW82JIdIIw8Vi3Knsoh-5" value="pedir direcciÃ³n de enviÃ³" style="rounded=1;whiteSpace=wrap;html=1;" vertex="1" parent="1">
          <mxGeometry x="1157.5" y="1713" width="85" height="40" as="geometry" />
        </mxCell>
        <mxCell id="TzW82JIdIIw8Vi3Knsoh-6" value="" style="endArrow=classic;html=1;rounded=0;entryX=0.5;entryY=0;entryDx=0;entryDy=0;" edge="1" parent="1" target="TzW82JIdIIw8Vi3Knsoh-5">
          <mxGeometry width="50" height="50" relative="1" as="geometry">
            <mxPoint x="1200" y="1679" as="sourcePoint" />
            <mxPoint x="1230" y="1749" as="targetPoint" />
          </mxGeometry>
        </mxCell>
        <mxCell id="TzW82JIdIIw8Vi3Knsoh-7" value="" style="endArrow=classic;html=1;rounded=0;entryX=0.5;entryY=0;entryDx=0;entryDy=0;" edge="1" parent="1">
          <mxGeometry width="50" height="50" relative="1" as="geometry">
            <mxPoint x="1307.26" y="1679" as="sourcePoint" />
            <mxPoint x="1307.26" y="1713" as="targetPoint" />
          </mxGeometry>
        </mxCell>
        <mxCell id="TzW82JIdIIw8Vi3Knsoh-8" value="" style="endArrow=classic;html=1;rounded=0;entryX=0.5;entryY=0;entryDx=0;entryDy=0;" edge="1" parent="1">
          <mxGeometry width="50" height="50" relative="1" as="geometry">
            <mxPoint x="1092.26" y="1679" as="sourcePoint" />
            <mxPoint x="1092.26" y="1713" as="targetPoint" />
          </mxGeometry>
        </mxCell>
        <mxCell id="TzW82JIdIIw8Vi3Knsoh-14" value="" style="endArrow=classic;html=1;rounded=0;entryX=0.5;entryY=0;entryDx=0;entryDy=0;" edge="1" parent="1" target="vyCPet9ZvcBCag2oU1Ab-193">
          <mxGeometry width="50" height="50" relative="1" as="geometry">
            <mxPoint x="1310" y="1780" as="sourcePoint" />
            <mxPoint x="1130" y="1750" as="targetPoint" />
            <Array as="points">
              <mxPoint x="760" y="1780" />
            </Array>
          </mxGeometry>
        </mxCell>
        <mxCell id="TzW82JIdIIw8Vi3Knsoh-29" style="edgeStyle=orthogonalEdgeStyle;rounded=0;orthogonalLoop=1;jettySize=auto;html=1;exitX=0;exitY=0.5;exitDx=0;exitDy=0;" edge="1" parent="1" source="TzW82JIdIIw8Vi3Knsoh-17" target="TzW82JIdIIw8Vi3Knsoh-19">
          <mxGeometry relative="1" as="geometry" />
        </mxCell>
        <mxCell id="TzW82JIdIIw8Vi3Knsoh-30" style="edgeStyle=orthogonalEdgeStyle;rounded=0;orthogonalLoop=1;jettySize=auto;html=1;exitX=1;exitY=0.5;exitDx=0;exitDy=0;entryX=0.5;entryY=0;entryDx=0;entryDy=0;" edge="1" parent="1" source="TzW82JIdIIw8Vi3Knsoh-17" target="TzW82JIdIIw8Vi3Knsoh-26">
          <mxGeometry relative="1" as="geometry" />
        </mxCell>
        <mxCell id="TzW82JIdIIw8Vi3Knsoh-17" value="" style="rhombus;whiteSpace=wrap;html=1;" vertex="1" parent="1">
          <mxGeometry x="740" y="1877.5" width="40" height="35" as="geometry" />
        </mxCell>
        <mxCell id="TzW82JIdIIw8Vi3Knsoh-39" style="edgeStyle=orthogonalEdgeStyle;rounded=0;orthogonalLoop=1;jettySize=auto;html=1;exitX=0.5;exitY=1;exitDx=0;exitDy=0;entryX=0.5;entryY=0;entryDx=0;entryDy=0;" edge="1" parent="1" source="TzW82JIdIIw8Vi3Knsoh-19" target="TzW82JIdIIw8Vi3Knsoh-34">
          <mxGeometry relative="1" as="geometry" />
        </mxCell>
        <mxCell id="TzW82JIdIIw8Vi3Knsoh-19" value="Introducir nÂº tarjeta y pin" style="rounded=1;whiteSpace=wrap;html=1;" vertex="1" parent="1">
          <mxGeometry x="655" y="1940" width="85" height="40" as="geometry" />
        </mxCell>
        <mxCell id="TzW82JIdIIw8Vi3Knsoh-33" style="edgeStyle=orthogonalEdgeStyle;rounded=0;orthogonalLoop=1;jettySize=auto;html=1;exitX=0.5;exitY=1;exitDx=0;exitDy=0;entryX=0.5;entryY=0;entryDx=0;entryDy=0;" edge="1" parent="1" source="TzW82JIdIIw8Vi3Knsoh-26" target="TzW82JIdIIw8Vi3Knsoh-32">
          <mxGeometry relative="1" as="geometry" />
        </mxCell>
        <mxCell id="TzW82JIdIIw8Vi3Knsoh-26" value="Introducir dinero" style="rounded=1;whiteSpace=wrap;html=1;" vertex="1" parent="1">
          <mxGeometry x="860" y="1920" width="85" height="40" as="geometry" />
        </mxCell>
        <mxCell id="TzW82JIdIIw8Vi3Knsoh-27" value="" style="endArrow=none;html=1;rounded=0;entryX=0;entryY=1;entryDx=0;entryDy=0;strokeWidth=2;" edge="1" parent="1" target="vyCPet9ZvcBCag2oU1Ab-150">
          <mxGeometry width="50" height="50" relative="1" as="geometry">
            <mxPoint x="600" y="2240" as="sourcePoint" />
            <mxPoint x="600" y="1229.5238095238096" as="targetPoint" />
          </mxGeometry>
        </mxCell>
        <mxCell id="TzW82JIdIIw8Vi3Knsoh-28" value="" style="endArrow=none;html=1;rounded=0;entryX=0;entryY=1;entryDx=0;entryDy=0;strokeWidth=2;" edge="1" parent="1">
          <mxGeometry width="50" height="50" relative="1" as="geometry">
            <mxPoint x="1400" y="2240" as="sourcePoint" />
            <mxPoint x="1399.52" y="1050" as="targetPoint" />
          </mxGeometry>
        </mxCell>
        <mxCell id="TzW82JIdIIw8Vi3Knsoh-31" value="" style="endArrow=none;html=1;rounded=0;entryX=0;entryY=1;entryDx=0;entryDy=0;strokeWidth=2;" edge="1" parent="1">
          <mxGeometry width="50" height="50" relative="1" as="geometry">
            <mxPoint x="1000" y="2240" as="sourcePoint" />
            <mxPoint x="999.6" y="1050" as="targetPoint" />
          </mxGeometry>
        </mxCell>
        <mxCell id="TzW82JIdIIw8Vi3Knsoh-53" style="edgeStyle=orthogonalEdgeStyle;rounded=0;orthogonalLoop=1;jettySize=auto;html=1;exitX=0.5;exitY=1;exitDx=0;exitDy=0;entryX=0.5;entryY=0;entryDx=0;entryDy=0;" edge="1" parent="1" source="TzW82JIdIIw8Vi3Knsoh-32" target="TzW82JIdIIw8Vi3Knsoh-47">
          <mxGeometry relative="1" as="geometry" />
        </mxCell>
        <mxCell id="TzW82JIdIIw8Vi3Knsoh-32" value="Calcular si hay devolucion de dinero" style="rounded=1;whiteSpace=wrap;html=1;" vertex="1" parent="1">
          <mxGeometry x="1270" y="2000" width="90" height="50" as="geometry" />
        </mxCell>
        <mxCell id="TzW82JIdIIw8Vi3Knsoh-42" style="edgeStyle=orthogonalEdgeStyle;rounded=0;orthogonalLoop=1;jettySize=auto;html=1;exitX=0;exitY=0.5;exitDx=0;exitDy=0;entryX=0.5;entryY=0;entryDx=0;entryDy=0;" edge="1" parent="1" source="TzW82JIdIIw8Vi3Knsoh-34" target="TzW82JIdIIw8Vi3Knsoh-40">
          <mxGeometry relative="1" as="geometry" />
        </mxCell>
        <mxCell id="TzW82JIdIIw8Vi3Knsoh-34" value="" style="rhombus;whiteSpace=wrap;html=1;" vertex="1" parent="1">
          <mxGeometry x="677.5" y="2000" width="40" height="35" as="geometry" />
        </mxCell>
        <mxCell id="TzW82JIdIIw8Vi3Knsoh-36" value="&lt;p style=&quot;line-height: 73%;&quot;&gt;&lt;span style=&quot;font-size: 12px;&quot;&gt;El cliente selecciona&amp;nbsp;pago por tarjeta&lt;/span&gt;&lt;/p&gt;" style="text;html=1;align=center;verticalAlign=middle;whiteSpace=wrap;rounded=0;fontSize=16;opacity=20;" vertex="1" parent="1">
          <mxGeometry x="607.5" y="1860" width="145" height="30" as="geometry" />
        </mxCell>
        <mxCell id="TzW82JIdIIw8Vi3Knsoh-38" value="&lt;p style=&quot;line-height: 73%;&quot;&gt;&lt;span style=&quot;font-size: 12px;&quot;&gt;El cliente selecciona&amp;nbsp;pago en efectivo&lt;/span&gt;&lt;/p&gt;" style="text;html=1;align=center;verticalAlign=middle;whiteSpace=wrap;rounded=0;fontSize=16;opacity=20;" vertex="1" parent="1">
          <mxGeometry x="770" y="1860" width="145" height="30" as="geometry" />
        </mxCell>
        <mxCell id="TzW82JIdIIw8Vi3Knsoh-46" style="edgeStyle=orthogonalEdgeStyle;rounded=0;orthogonalLoop=1;jettySize=auto;html=1;exitX=0.5;exitY=1;exitDx=0;exitDy=0;entryX=0.5;entryY=0;entryDx=0;entryDy=0;" edge="1" parent="1" source="TzW82JIdIIw8Vi3Knsoh-40" target="TzW82JIdIIw8Vi3Knsoh-45">
          <mxGeometry relative="1" as="geometry" />
        </mxCell>
        <mxCell id="TzW82JIdIIw8Vi3Knsoh-40" value="Mostrar error de bloqueo de tarjeta" style="rounded=1;whiteSpace=wrap;html=1;" vertex="1" parent="1">
          <mxGeometry x="605" y="2050" width="85" height="50" as="geometry" />
        </mxCell>
        <mxCell id="TzW82JIdIIw8Vi3Knsoh-54" style="edgeStyle=orthogonalEdgeStyle;rounded=0;orthogonalLoop=1;jettySize=auto;html=1;exitX=1;exitY=0.5;exitDx=0;exitDy=0;entryX=0.5;entryY=0;entryDx=0;entryDy=0;" edge="1" parent="1" source="TzW82JIdIIw8Vi3Knsoh-34" target="TzW82JIdIIw8Vi3Knsoh-47">
          <mxGeometry relative="1" as="geometry" />
        </mxCell>
        <mxCell id="TzW82JIdIIw8Vi3Knsoh-45" value="" style="ellipse;html=1;shape=endState;fillColor=#000000;strokeColor=#050000;" vertex="1" parent="1">
          <mxGeometry x="632.5" y="2120" width="30" height="30" as="geometry" />
        </mxCell>
        <mxCell id="TzW82JIdIIw8Vi3Knsoh-52" style="edgeStyle=orthogonalEdgeStyle;rounded=0;orthogonalLoop=1;jettySize=auto;html=1;exitX=0.5;exitY=1;exitDx=0;exitDy=0;entryX=0.5;entryY=0;entryDx=0;entryDy=0;" edge="1" parent="1" source="TzW82JIdIIw8Vi3Knsoh-47" target="TzW82JIdIIw8Vi3Knsoh-48">
          <mxGeometry relative="1" as="geometry" />
        </mxCell>
        <mxCell id="TzW82JIdIIw8Vi3Knsoh-47" value="Mensaje de confirmaciÃ³n" style="rounded=1;whiteSpace=wrap;html=1;" vertex="1" parent="1">
          <mxGeometry x="1157.5" y="2090" width="85" height="40" as="geometry" />
        </mxCell>
        <mxCell id="TzW82JIdIIw8Vi3Knsoh-51" style="edgeStyle=orthogonalEdgeStyle;rounded=0;orthogonalLoop=1;jettySize=auto;html=1;exitX=0.5;exitY=1;exitDx=0;exitDy=0;entryX=0.5;entryY=0;entryDx=0;entryDy=0;" edge="1" parent="1" source="TzW82JIdIIw8Vi3Knsoh-48" target="TzW82JIdIIw8Vi3Knsoh-50">
          <mxGeometry relative="1" as="geometry" />
        </mxCell>
        <mxCell id="TzW82JIdIIw8Vi3Knsoh-48" value="Imprimir Ticket" style="rounded=1;whiteSpace=wrap;html=1;" vertex="1" parent="1">
          <mxGeometry x="1157.5" y="2150" width="85" height="40" as="geometry" />
        </mxCell>
        <mxCell id="TzW82JIdIIw8Vi3Knsoh-50" value="" style="ellipse;html=1;shape=endState;fillColor=#000000;strokeColor=#050000;" vertex="1" parent="1">
          <mxGeometry x="1185" y="2210" width="30" height="30" as="geometry" />
        </mxCell>
        <mxCell id="TzW82JIdIIw8Vi3Knsoh-55" value="" style="endArrow=none;html=1;rounded=0;strokeWidth=2;" edge="1" parent="1">
          <mxGeometry width="50" height="50" relative="1" as="geometry">
            <mxPoint x="599.2" y="2240" as="sourcePoint" />
            <mxPoint x="1400" y="2240" as="targetPoint" />
          </mxGeometry>
        </mxCell>
        <mxCell id="TzW82JIdIIw8Vi3Knsoh-56" value="&lt;p style=&quot;line-height: 73%;&quot;&gt;&lt;span style=&quot;font-size: 12px;&quot;&gt;Si falla mas de 3 veces&lt;/span&gt;&lt;/p&gt;" style="text;html=1;align=center;verticalAlign=middle;whiteSpace=wrap;rounded=0;fontSize=16;opacity=20;" vertex="1" parent="1">
          <mxGeometry x="612.5" y="1980" width="72.5" height="30" as="geometry" />
        </mxCell>
        <mxCell id="TzW82JIdIIw8Vi3Knsoh-57" value="&lt;p style=&quot;line-height: 73%;&quot;&gt;&lt;span style=&quot;font-size: 12px;&quot;&gt;Si es correcto&lt;/span&gt;&lt;/p&gt;" style="text;html=1;align=center;verticalAlign=middle;whiteSpace=wrap;rounded=0;fontSize=16;opacity=20;" vertex="1" parent="1">
          <mxGeometry x="700" y="1990" width="145" height="30" as="geometry" />
        </mxCell>
      </root>
    </mxGraphModel>
  </diagram>
</mxfile>
